G04*
G04 #@! TF.GenerationSoftware,Altium Limited,Altium Designer,26.3.0 (6)*
G04*
G04 Layer_Color=8388736*
%FSLAX44Y44*%
%MOMM*%
G71*
G04*
G04 #@! TF.SameCoordinates,42E91EB3-116B-40EE-AB62-CD4AD7042EDC*
G04*
G04*
G04 #@! TF.FilePolarity,Negative*
G04*
G01*
G75*
%ADD37R,0.9000X1.5000*%
%ADD38R,1.5000X0.9000*%
%ADD39R,1.8000X3.2000*%
%ADD40R,3.7000X2.4000*%
%ADD41R,0.8000X2.4000*%
%ADD42R,2.9000X2.2000*%
%ADD43R,2.8000X2.7000*%
%ADD44R,2.7000X2.8000*%
%ADD45R,1.2000X0.7500*%
%ADD46R,0.7500X1.2000*%
%ADD47C,3.0480*%
%ADD48R,1.0000X1.0000*%
%ADD49R,1.4500X0.5000*%
%ADD50R,1.6000X1.8000*%
%ADD51R,2.1000X2.1000*%
%ADD52R,0.6700X1.6200*%
%ADD53R,1.6200X0.6700*%
%ADD54R,0.8858X0.7588*%
%ADD55R,0.7588X0.8858*%
%ADD56R,1.1000X0.8000*%
%ADD57R,1.5000X1.1000*%
%ADD58R,1.1000X1.5000*%
%ADD59R,2.2000X1.8000*%
%ADD60O,2.2000X1.8000*%
%ADD61C,3.4000*%
%ADD62O,1.8000X2.2000*%
%ADD63R,1.8000X2.2000*%
%ADD64C,4.2000*%
%ADD65C,7.6000*%
%ADD66C,1.9000*%
%ADD67R,1.9000X1.9000*%
%ADD68C,2.1000*%
%ADD69R,2.1000X2.1000*%
G04:AMPARAMS|DCode=70|XSize=2.1mm|YSize=1.3mm|CornerRadius=0.35mm|HoleSize=0mm|Usage=FLASHONLY|Rotation=0.000|XOffset=0mm|YOffset=0mm|HoleType=Round|Shape=RoundedRectangle|*
%AMROUNDEDRECTD70*
21,1,2.1000,0.6000,0,0,0.0*
21,1,1.4000,1.3000,0,0,0.0*
1,1,0.7000,0.7000,-0.3000*
1,1,0.7000,-0.7000,-0.3000*
1,1,0.7000,-0.7000,0.3000*
1,1,0.7000,0.7000,0.3000*
%
%ADD70ROUNDEDRECTD70*%
D37*
X114046Y353060D02*
D03*
X95046D02*
D03*
X290000Y442000D02*
D03*
X271000D02*
D03*
X270750Y418250D02*
D03*
X289750D02*
D03*
X86500Y218000D02*
D03*
X105500D02*
D03*
X105500Y196000D02*
D03*
X86500D02*
D03*
X85750Y173500D02*
D03*
X104750D02*
D03*
X367500Y100000D02*
D03*
X386500D02*
D03*
X606750Y227000D02*
D03*
X625750D02*
D03*
X233500Y441000D02*
D03*
X252500D02*
D03*
X427500Y231000D02*
D03*
X408500D02*
D03*
X597500Y352000D02*
D03*
X578500D02*
D03*
X29500Y254000D02*
D03*
X10500D02*
D03*
X273000Y88000D02*
D03*
X292000D02*
D03*
X130500Y214000D02*
D03*
X149500D02*
D03*
D38*
X170750Y400500D02*
D03*
Y381500D02*
D03*
X90000Y279500D02*
D03*
Y260500D02*
D03*
X220000Y286500D02*
D03*
Y267500D02*
D03*
X606000Y454500D02*
D03*
Y473500D02*
D03*
X580000D02*
D03*
Y454500D02*
D03*
X636000Y413500D02*
D03*
Y432500D02*
D03*
X669000Y190000D02*
D03*
Y209000D02*
D03*
X30000Y294500D02*
D03*
Y275500D02*
D03*
X669290Y242418D02*
D03*
Y223418D02*
D03*
X276000Y48500D02*
D03*
Y67500D02*
D03*
X251000Y149000D02*
D03*
Y168000D02*
D03*
X648970Y242062D02*
D03*
Y223062D02*
D03*
X332000Y64500D02*
D03*
Y83500D02*
D03*
Y64500D02*
D03*
Y45500D02*
D03*
D39*
X73000Y143000D02*
D03*
Y102000D02*
D03*
X71750Y63500D02*
D03*
Y22500D02*
D03*
D40*
X161000Y176000D02*
D03*
D41*
X186400Y114000D02*
D03*
X173700D02*
D03*
X161000D02*
D03*
X148300D02*
D03*
X135600D02*
D03*
D42*
X19000Y100000D02*
D03*
Y68000D02*
D03*
D43*
X252000Y271000D02*
D03*
Y320000D02*
D03*
D44*
X461500Y284000D02*
D03*
X412500D02*
D03*
D45*
X193500Y423500D02*
D03*
Y442500D02*
D03*
X166500Y423500D02*
D03*
Y433000D02*
D03*
Y442500D02*
D03*
X230500Y144500D02*
D03*
Y163500D02*
D03*
X203500Y144500D02*
D03*
Y154000D02*
D03*
Y163500D02*
D03*
D46*
X67500Y281500D02*
D03*
X48500D02*
D03*
X67500Y254500D02*
D03*
X58000D02*
D03*
X48500D02*
D03*
X647500Y145500D02*
D03*
X666500D02*
D03*
X647500Y172500D02*
D03*
X657000D02*
D03*
X666500D02*
D03*
D47*
X223000Y43000D02*
D03*
X669000Y20000D02*
D03*
X81250Y527000D02*
D03*
X669750Y517250D02*
D03*
D48*
X597000Y373000D02*
D03*
X581000D02*
D03*
X252000Y421000D02*
D03*
X236000D02*
D03*
X252000Y396250D02*
D03*
X236000D02*
D03*
X252250Y381000D02*
D03*
X236250D02*
D03*
D49*
X48745Y214000D02*
D03*
Y207500D02*
D03*
Y201000D02*
D03*
Y194500D02*
D03*
Y188000D02*
D03*
D50*
X46495Y233000D02*
D03*
Y169000D02*
D03*
D51*
X21995Y189000D02*
D03*
Y213000D02*
D03*
X245750Y82500D02*
D03*
D52*
X182000Y258000D02*
D03*
X174000D02*
D03*
X166000D02*
D03*
X158000D02*
D03*
X150000D02*
D03*
X142000D02*
D03*
X134000D02*
D03*
X126000D02*
D03*
Y342000D02*
D03*
X134000D02*
D03*
X142000D02*
D03*
X150000D02*
D03*
X158000D02*
D03*
X166000D02*
D03*
X174000D02*
D03*
X182000D02*
D03*
D53*
X112000Y272000D02*
D03*
Y280000D02*
D03*
Y288000D02*
D03*
Y296000D02*
D03*
Y304000D02*
D03*
Y312000D02*
D03*
Y320000D02*
D03*
Y328000D02*
D03*
X196000D02*
D03*
Y320000D02*
D03*
Y312000D02*
D03*
Y304000D02*
D03*
Y296000D02*
D03*
Y288000D02*
D03*
Y280000D02*
D03*
Y272000D02*
D03*
D54*
X11500Y274250D02*
D03*
Y294250D02*
D03*
D55*
X606000Y245000D02*
D03*
X626000D02*
D03*
D56*
X70000Y228500D02*
D03*
Y213500D02*
D03*
X69750Y185250D02*
D03*
Y200250D02*
D03*
D57*
X221000Y240500D02*
D03*
Y221500D02*
D03*
X201000Y221500D02*
D03*
Y240500D02*
D03*
X220000Y322000D02*
D03*
Y303000D02*
D03*
X176000Y220500D02*
D03*
Y239500D02*
D03*
X22750Y451250D02*
D03*
Y432250D02*
D03*
X636000Y451500D02*
D03*
Y470500D02*
D03*
X114000Y130500D02*
D03*
Y111500D02*
D03*
X208000Y126500D02*
D03*
Y107500D02*
D03*
X304000Y66500D02*
D03*
Y47500D02*
D03*
X355000Y65500D02*
D03*
Y46500D02*
D03*
X213000Y421500D02*
D03*
Y440500D02*
D03*
X221000Y202500D02*
D03*
Y183500D02*
D03*
X647750Y188500D02*
D03*
Y207500D02*
D03*
X231000Y126500D02*
D03*
Y107500D02*
D03*
X199000Y184000D02*
D03*
Y203000D02*
D03*
X442000Y61500D02*
D03*
Y80500D02*
D03*
D58*
X262000Y348000D02*
D03*
X243000D02*
D03*
X260500Y243000D02*
D03*
X241500D02*
D03*
X403500Y49000D02*
D03*
X384500D02*
D03*
X39500Y521000D02*
D03*
X20500D02*
D03*
X461500Y78000D02*
D03*
X480500D02*
D03*
X445500Y230000D02*
D03*
X464500D02*
D03*
X263500Y485000D02*
D03*
X244500D02*
D03*
X403500Y78000D02*
D03*
X422500D02*
D03*
X403000Y100000D02*
D03*
X422000D02*
D03*
X459500D02*
D03*
X440500D02*
D03*
X407500Y253000D02*
D03*
X426500D02*
D03*
X465000D02*
D03*
X446000D02*
D03*
X667500Y127000D02*
D03*
X648500D02*
D03*
X72500Y303000D02*
D03*
X53500D02*
D03*
X107500Y241000D02*
D03*
X88500D02*
D03*
X597500Y331000D02*
D03*
X578500D02*
D03*
X460750Y56500D02*
D03*
X479750D02*
D03*
X149500Y237000D02*
D03*
X130500D02*
D03*
D59*
X662000Y469000D02*
D03*
X146000Y446000D02*
D03*
D60*
X662000Y418200D02*
D03*
Y443600D02*
D03*
X146000Y420600D02*
D03*
Y369800D02*
D03*
Y395200D02*
D03*
D61*
X134750Y515750D02*
D03*
D62*
X391160Y508000D02*
D03*
X187960D02*
D03*
X213360D02*
D03*
X238760D02*
D03*
X264160D02*
D03*
X289560D02*
D03*
X314960D02*
D03*
X340360D02*
D03*
X365760D02*
D03*
X304800Y25400D02*
D03*
X457200D02*
D03*
X431800D02*
D03*
X406400D02*
D03*
X381000D02*
D03*
X355600D02*
D03*
X330200D02*
D03*
X609600Y508000D02*
D03*
X457200D02*
D03*
X482600D02*
D03*
X508000D02*
D03*
X533400D02*
D03*
X558800D02*
D03*
X584200D02*
D03*
X533400Y25400D02*
D03*
X635000D02*
D03*
X609600D02*
D03*
X584200D02*
D03*
X558800D02*
D03*
X141600Y88000D02*
D03*
X167000D02*
D03*
X290450Y125730D02*
D03*
X315850D02*
D03*
X341250D02*
D03*
X366650D02*
D03*
X392050D02*
D03*
X417450D02*
D03*
X442850D02*
D03*
X468250D02*
D03*
X493650D02*
D03*
X519050D02*
D03*
X544450D02*
D03*
X569850D02*
D03*
X595250D02*
D03*
X620650D02*
D03*
X290450Y201930D02*
D03*
X315850D02*
D03*
X341250D02*
D03*
X366650D02*
D03*
X392050D02*
D03*
X417450D02*
D03*
X442850D02*
D03*
X468250D02*
D03*
X493650D02*
D03*
X519050D02*
D03*
X544450D02*
D03*
X569850D02*
D03*
X595250D02*
D03*
D63*
X416560Y508000D02*
D03*
X279400Y25400D02*
D03*
X635000Y508000D02*
D03*
X508000Y25400D02*
D03*
X116200Y88000D02*
D03*
X620650Y201930D02*
D03*
D64*
X21000Y27000D02*
D03*
X22000Y138000D02*
D03*
D65*
X139700Y25400D02*
D03*
X660400Y76200D02*
D03*
Y355600D02*
D03*
D66*
X76200Y497840D02*
D03*
X50800D02*
D03*
X25400D02*
D03*
X76200Y472440D02*
D03*
X50800D02*
D03*
X76200Y411480D02*
D03*
X50800D02*
D03*
X25400D02*
D03*
X76200Y386080D02*
D03*
X50800D02*
D03*
X28350Y351750D02*
D03*
X53750Y326350D02*
D03*
X28350D02*
D03*
D67*
X25400Y472440D02*
D03*
Y386080D02*
D03*
X53750Y351750D02*
D03*
D68*
X601000Y261000D02*
D03*
Y306000D02*
D03*
X666000D02*
D03*
X245750Y17500D02*
D03*
X200750D02*
D03*
Y82500D02*
D03*
D69*
X666000Y261000D02*
D03*
D70*
X21995Y234000D02*
D03*
Y168000D02*
D03*
M02*
