G04*
G04 #@! TF.GenerationSoftware,Altium Limited,Altium Designer,26.3.0 (6)*
G04*
G04 Layer_Color=8421504*
%FSLAX44Y44*%
%MOMM*%
G71*
G04*
G04 #@! TF.SameCoordinates,42E91EB3-116B-40EE-AB62-CD4AD7042EDC*
G04*
G04*
G04 #@! TF.FilePolarity,Positive*
G04*
G01*
G75*
%ADD16R,0.7000X1.3000*%
%ADD17R,1.3000X0.7000*%
%ADD18R,1.6000X3.0000*%
%ADD19R,3.5000X2.2000*%
%ADD20R,0.6000X2.2000*%
%ADD21R,2.7000X2.0000*%
%ADD22R,2.6000X2.5000*%
%ADD23R,2.5000X2.6000*%
%ADD24R,1.0000X0.5500*%
%ADD25R,0.5500X1.0000*%
%ADD26R,0.8000X0.8000*%
%ADD27R,1.3500X0.4000*%
%ADD28R,1.4000X1.6000*%
%ADD29R,1.9000X1.9000*%
%ADD30R,0.5500X1.5000*%
%ADD31R,1.5000X0.5500*%
%ADD32R,0.6858X0.5588*%
%ADD33R,0.5588X0.6858*%
%ADD34R,0.9000X0.6000*%
%ADD35R,1.3000X0.9000*%
%ADD36R,0.9000X1.3000*%
D16*
X114046Y353060D02*
D03*
X95046D02*
D03*
X290000Y442000D02*
D03*
X271000D02*
D03*
X270750Y418250D02*
D03*
X289750D02*
D03*
X86500Y218000D02*
D03*
X105500D02*
D03*
X105500Y196000D02*
D03*
X86500D02*
D03*
X85750Y173500D02*
D03*
X104750D02*
D03*
X367500Y100000D02*
D03*
X386500D02*
D03*
X606750Y227000D02*
D03*
X625750D02*
D03*
X233500Y441000D02*
D03*
X252500D02*
D03*
X427500Y231000D02*
D03*
X408500D02*
D03*
X597500Y352000D02*
D03*
X578500D02*
D03*
X29500Y254000D02*
D03*
X10500D02*
D03*
X273000Y88000D02*
D03*
X292000D02*
D03*
X130500Y214000D02*
D03*
X149500D02*
D03*
D17*
X170750Y400500D02*
D03*
Y381500D02*
D03*
X90000Y279500D02*
D03*
Y260500D02*
D03*
X220000Y286500D02*
D03*
Y267500D02*
D03*
X606000Y454500D02*
D03*
Y473500D02*
D03*
X580000D02*
D03*
Y454500D02*
D03*
X636000Y413500D02*
D03*
Y432500D02*
D03*
X669000Y190000D02*
D03*
Y209000D02*
D03*
X30000Y294500D02*
D03*
Y275500D02*
D03*
X669290Y242418D02*
D03*
Y223418D02*
D03*
X276000Y48500D02*
D03*
Y67500D02*
D03*
X251000Y149000D02*
D03*
Y168000D02*
D03*
X648970Y242062D02*
D03*
Y223062D02*
D03*
X332000Y64500D02*
D03*
Y83500D02*
D03*
Y64500D02*
D03*
Y45500D02*
D03*
D18*
X73000Y143000D02*
D03*
Y102000D02*
D03*
X71750Y63500D02*
D03*
Y22500D02*
D03*
D19*
X161000Y176000D02*
D03*
D20*
X186400Y114000D02*
D03*
X173700D02*
D03*
X161000D02*
D03*
X148300D02*
D03*
X135600D02*
D03*
D21*
X19000Y100000D02*
D03*
Y68000D02*
D03*
D22*
X252000Y271000D02*
D03*
Y320000D02*
D03*
D23*
X461500Y284000D02*
D03*
X412500D02*
D03*
D24*
X193500Y423500D02*
D03*
Y442500D02*
D03*
X166500Y423500D02*
D03*
Y433000D02*
D03*
Y442500D02*
D03*
X230500Y144500D02*
D03*
Y163500D02*
D03*
X203500Y144500D02*
D03*
Y154000D02*
D03*
Y163500D02*
D03*
D25*
X67500Y281500D02*
D03*
X48500D02*
D03*
X67500Y254500D02*
D03*
X58000D02*
D03*
X48500D02*
D03*
X647500Y145500D02*
D03*
X666500D02*
D03*
X647500Y172500D02*
D03*
X657000D02*
D03*
X666500D02*
D03*
D26*
X597000Y373000D02*
D03*
X581000D02*
D03*
X252000Y421000D02*
D03*
X236000D02*
D03*
X252000Y396250D02*
D03*
X236000D02*
D03*
X252250Y381000D02*
D03*
X236250D02*
D03*
D27*
X48745Y214000D02*
D03*
Y207500D02*
D03*
Y201000D02*
D03*
Y194500D02*
D03*
Y188000D02*
D03*
D28*
X46495Y233000D02*
D03*
Y169000D02*
D03*
D29*
X21995Y189000D02*
D03*
Y213000D02*
D03*
D30*
X182000Y258000D02*
D03*
X174000D02*
D03*
X166000D02*
D03*
X158000D02*
D03*
X150000D02*
D03*
X142000D02*
D03*
X134000D02*
D03*
X126000D02*
D03*
Y342000D02*
D03*
X134000D02*
D03*
X142000D02*
D03*
X150000D02*
D03*
X158000D02*
D03*
X166000D02*
D03*
X174000D02*
D03*
X182000D02*
D03*
D31*
X112000Y272000D02*
D03*
Y280000D02*
D03*
Y288000D02*
D03*
Y296000D02*
D03*
Y304000D02*
D03*
Y312000D02*
D03*
Y320000D02*
D03*
Y328000D02*
D03*
X196000D02*
D03*
Y320000D02*
D03*
Y312000D02*
D03*
Y304000D02*
D03*
Y296000D02*
D03*
Y288000D02*
D03*
Y280000D02*
D03*
Y272000D02*
D03*
D32*
X11500Y274250D02*
D03*
Y294250D02*
D03*
D33*
X606000Y245000D02*
D03*
X626000D02*
D03*
D34*
X70000Y228500D02*
D03*
Y213500D02*
D03*
X69750Y185250D02*
D03*
Y200250D02*
D03*
D35*
X221000Y240500D02*
D03*
Y221500D02*
D03*
X201000Y221500D02*
D03*
Y240500D02*
D03*
X220000Y322000D02*
D03*
Y303000D02*
D03*
X176000Y220500D02*
D03*
Y239500D02*
D03*
X22750Y451250D02*
D03*
Y432250D02*
D03*
X636000Y451500D02*
D03*
Y470500D02*
D03*
X114000Y130500D02*
D03*
Y111500D02*
D03*
X208000Y126500D02*
D03*
Y107500D02*
D03*
X304000Y66500D02*
D03*
Y47500D02*
D03*
X355000Y65500D02*
D03*
Y46500D02*
D03*
X213000Y421500D02*
D03*
Y440500D02*
D03*
X221000Y202500D02*
D03*
Y183500D02*
D03*
X647750Y188500D02*
D03*
Y207500D02*
D03*
X231000Y126500D02*
D03*
Y107500D02*
D03*
X199000Y184000D02*
D03*
Y203000D02*
D03*
X442000Y61500D02*
D03*
Y80500D02*
D03*
D36*
X262000Y348000D02*
D03*
X243000D02*
D03*
X260500Y243000D02*
D03*
X241500D02*
D03*
X403500Y49000D02*
D03*
X384500D02*
D03*
X39500Y521000D02*
D03*
X20500D02*
D03*
X461500Y78000D02*
D03*
X480500D02*
D03*
X445500Y230000D02*
D03*
X464500D02*
D03*
X263500Y485000D02*
D03*
X244500D02*
D03*
X403500Y78000D02*
D03*
X422500D02*
D03*
X403000Y100000D02*
D03*
X422000D02*
D03*
X459500D02*
D03*
X440500D02*
D03*
X407500Y253000D02*
D03*
X426500D02*
D03*
X465000D02*
D03*
X446000D02*
D03*
X667500Y127000D02*
D03*
X648500D02*
D03*
X72500Y303000D02*
D03*
X53500D02*
D03*
X107500Y241000D02*
D03*
X88500D02*
D03*
X597500Y331000D02*
D03*
X578500D02*
D03*
X460750Y56500D02*
D03*
X479750D02*
D03*
X149500Y237000D02*
D03*
X130500D02*
D03*
M02*
