G04*
G04 #@! TF.GenerationSoftware,Altium Limited,Altium Designer,26.3.0 (6)*
G04*
G04 Layer_Color=65535*
%FSLAX44Y44*%
%MOMM*%
G71*
G04*
G04 #@! TF.SameCoordinates,42E91EB3-116B-40EE-AB62-CD4AD7042EDC*
G04*
G04*
G04 #@! TF.FilePolarity,Positive*
G04*
G01*
G75*
%ADD10C,0.2000*%
%ADD11C,0.5000*%
%ADD12C,0.4000*%
%ADD13C,0.1500*%
%ADD14C,0.2540*%
%ADD15C,0.1000*%
D10*
X109165Y489022D02*
G03*
X166615Y496946I25585J26728D01*
G01*
X632550Y171180D02*
G03*
X632550Y158480I0J-6350D01*
G01*
X88036Y363220D02*
X121056D01*
X88036Y341630D02*
Y363220D01*
Y341630D02*
X121056D01*
Y363220D01*
X641472Y255778D02*
X653034D01*
X613664D02*
X626528D01*
X649300Y481700D02*
X674700D01*
Y404738D02*
Y481700D01*
X649300Y404738D02*
Y481700D01*
Y404738D02*
X674700D01*
X132538Y355576D02*
X142698D01*
X159000D01*
Y461240D01*
X132792D02*
X159000D01*
X132538Y460986D02*
X132792Y461240D01*
X132538Y355576D02*
Y460986D01*
X431800Y495300D02*
Y520700D01*
X170180Y495300D02*
X431800D01*
X170180D02*
Y510540D01*
Y520700D01*
X431800D01*
X159320Y374490D02*
X180910D01*
X159320D02*
Y407510D01*
X180910D01*
Y374490D02*
Y407510D01*
X263990Y452160D02*
X297010D01*
X263990Y430570D02*
Y452160D01*
Y430570D02*
X297010D01*
Y452160D01*
X296760Y406820D02*
Y428410D01*
X263740Y406820D02*
X296760D01*
X263740D02*
Y428410D01*
X296760D01*
X79840Y253490D02*
Y286510D01*
Y253490D02*
X101430D01*
Y286510D01*
X79840D02*
X101430D01*
X79490Y207840D02*
X112510D01*
Y229430D01*
X79490D02*
X112510D01*
X79490Y207840D02*
Y229430D01*
X79490Y185840D02*
Y207430D01*
X112510D01*
Y185840D02*
Y207430D01*
X79490Y185840D02*
X112510D01*
X78740Y163340D02*
X111760D01*
Y184930D01*
X78740D02*
X111760D01*
X78740Y163340D02*
Y184930D01*
X208570Y260490D02*
X230160D01*
X208570D02*
Y293510D01*
X230160D01*
Y260490D02*
Y293510D01*
X616160Y447490D02*
Y480510D01*
X594570D02*
X616160D01*
X594570Y447490D02*
Y480510D01*
Y447490D02*
X616160D01*
X568570D02*
X590160D01*
X568570D02*
Y480510D01*
X590160D01*
Y447490D02*
Y480510D01*
X646160Y406490D02*
Y439510D01*
X624570D02*
X646160D01*
X624570Y406490D02*
Y439510D01*
Y406490D02*
X646160D01*
X393510Y88570D02*
Y110160D01*
X360490Y88570D02*
X393510D01*
X360490D02*
Y110160D01*
X393510D01*
X599740Y216840D02*
X632760D01*
Y238430D01*
X599740D02*
X632760D01*
X599740Y216840D02*
Y238430D01*
X259510Y429570D02*
Y451160D01*
X226490Y429570D02*
X259510D01*
X226490D02*
Y451160D01*
X259510D01*
X401490Y241160D02*
X434510D01*
X401490Y219570D02*
Y241160D01*
Y219570D02*
X434510D01*
Y241160D01*
X571490Y341840D02*
Y363430D01*
X604510D01*
Y341840D02*
Y363430D01*
X571490Y341840D02*
X604510D01*
X679160Y182990D02*
Y216010D01*
X657570D02*
X679160D01*
X657570Y182990D02*
Y216010D01*
Y182990D02*
X679160D01*
X18570Y268490D02*
X40160D01*
X18570D02*
Y301510D01*
X40160D01*
Y268490D02*
Y301510D01*
X659130Y216408D02*
Y249428D01*
Y216408D02*
X680720D01*
Y249428D01*
X659130D02*
X680720D01*
X265840Y74510D02*
X287430D01*
Y41490D02*
Y74510D01*
X265840Y41490D02*
X287430D01*
X265840D02*
Y74510D01*
X261160Y141990D02*
Y175010D01*
X239570D02*
X261160D01*
X239570Y141990D02*
Y175010D01*
Y141990D02*
X261160D01*
X3490Y243840D02*
Y265430D01*
X36510D01*
Y243840D02*
Y265430D01*
X3490Y243840D02*
X36510D01*
X638810Y216052D02*
Y249072D01*
Y216052D02*
X660400D01*
Y249072D01*
X638810D02*
X660400D01*
X299010Y76570D02*
Y98160D01*
X265990Y76570D02*
X299010D01*
X265990D02*
Y98160D01*
X299010D01*
X123490Y203840D02*
X156510D01*
Y225430D01*
X123490D02*
X156510D01*
X123490Y203840D02*
Y225430D01*
X321840Y90510D02*
X343430D01*
Y57490D02*
Y90510D01*
X321840Y57490D02*
X343430D01*
X321840D02*
Y90510D01*
Y38490D02*
Y71510D01*
Y38490D02*
X343430D01*
Y71510D01*
X321840D02*
X343430D01*
X90250Y96000D02*
X100500Y106250D01*
Y106750D02*
Y150500D01*
X83750Y96000D02*
X89750D01*
X45500Y106250D02*
Y110000D01*
Y106250D02*
X55750Y96000D01*
X61500D01*
X45500Y150000D02*
X62250D01*
X84000Y150500D02*
X100500D01*
X45500Y110000D02*
Y150000D01*
X89000Y16500D02*
X99250Y26750D01*
Y27250D02*
Y71000D01*
X82500Y16500D02*
X88500D01*
X44250Y26750D02*
Y30500D01*
Y26750D02*
X54500Y16500D01*
X60250D01*
X44250Y70500D02*
X61000D01*
X82750Y71000D02*
X99250D01*
X44250Y30500D02*
Y70500D01*
X264160Y12700D02*
X472440D01*
Y22860D01*
Y38100D01*
X264160D02*
X472440D01*
X264160Y12700D02*
Y38100D01*
X441960Y520700D02*
X650240D01*
X441960Y510540D02*
Y520700D01*
Y495300D02*
Y510540D01*
Y495300D02*
X650240D01*
Y520700D01*
X492760Y12700D02*
X650240D01*
Y22860D01*
Y38100D01*
X492760D02*
X650240D01*
X492760Y12700D02*
Y38100D01*
X180462Y75300D02*
Y100700D01*
X103500Y75300D02*
X180462D01*
X103500Y100700D02*
X180462D01*
X103500Y75300D02*
Y100700D01*
X12700Y510540D02*
X31750D01*
X69850D02*
X88900D01*
X31750D02*
X69850D01*
X88900Y459740D02*
Y510540D01*
X12700Y459740D02*
X88900D01*
X12700D02*
Y510540D01*
Y424180D02*
X31750D01*
X69850D02*
X88900D01*
X31750D02*
X69850D01*
X88900Y373380D02*
Y424180D01*
X12700Y373380D02*
X88900D01*
X12700D02*
Y424180D01*
X66450Y313650D02*
Y364450D01*
X15650D02*
X66450D01*
X15650Y313650D02*
Y364450D01*
X15638Y313666D02*
X47400Y313650D01*
X66450D01*
X127000Y126000D02*
X130000D01*
X192000D02*
X195000D01*
Y164000D01*
X182000D02*
X195000D01*
X127000D02*
X140000D01*
X127000Y126000D02*
Y164000D01*
X3000Y113000D02*
X35000D01*
Y55000D02*
Y113000D01*
X3000Y55000D02*
X35000D01*
X3000D02*
Y113000D01*
X233000Y336500D02*
X271000D01*
X233000Y254500D02*
Y336500D01*
X271000Y254500D02*
Y336500D01*
X240500Y254500D02*
X259500D01*
X271000D01*
X233000D02*
X240500D01*
X396000Y265000D02*
Y303000D01*
Y265000D02*
X478000D01*
X396000Y303000D02*
X478000D01*
Y272500D02*
Y291500D01*
Y303000D01*
Y265000D02*
Y272500D01*
X277550Y112830D02*
Y216830D01*
X632350D01*
X277550Y112830D02*
X632350D01*
Y171180D02*
Y216830D01*
Y112830D02*
Y158480D01*
X189000Y429000D02*
Y437000D01*
X171000Y417000D02*
X189000D01*
X171000Y449000D02*
X189000D01*
X54000Y277000D02*
X62000D01*
X74000Y259000D02*
Y277000D01*
X42000Y259000D02*
Y277000D01*
X653000Y150000D02*
X661000D01*
X641000D02*
Y168000D01*
X673000Y150000D02*
Y168000D01*
X226000Y150000D02*
Y158000D01*
X208000Y138000D02*
X226000D01*
X208000Y170000D02*
X226000D01*
X626528Y255778D02*
X641472D01*
X613500Y313500D02*
X653500D01*
X603500Y274500D02*
Y292500D01*
X663500Y274500D02*
Y292500D01*
X253250Y31000D02*
Y70000D01*
X193250Y30000D02*
Y70000D01*
X214250Y20000D02*
X232250D01*
X214250Y80000D02*
X232250D01*
X570966Y365380D02*
X573760D01*
X570966Y380620D02*
X573760D01*
X570966Y365380D02*
Y380620D01*
X573760Y365380D02*
Y380620D01*
X604240D01*
Y365380D02*
Y380620D01*
X573760Y365380D02*
X604240D01*
X225966Y413380D02*
X228760D01*
X225966Y428620D02*
X228760D01*
X225966Y413380D02*
Y428620D01*
X228760Y413380D02*
Y428620D01*
X259240D01*
Y413380D02*
Y428620D01*
X228760Y413380D02*
X259240D01*
X225966Y388630D02*
X228760D01*
X225966Y403870D02*
X228760D01*
X225966Y388630D02*
Y403870D01*
X228760Y388630D02*
Y403870D01*
X259240D01*
Y388630D02*
Y403870D01*
X228760Y388630D02*
X259240D01*
X226216Y373380D02*
X229010D01*
X226216Y388620D02*
X229010D01*
X226216Y373380D02*
Y388620D01*
X229010Y373380D02*
Y388620D01*
X259490D01*
Y373380D02*
Y388620D01*
X229010Y373380D02*
X259490D01*
X34370Y162000D02*
X36370D01*
X34370Y240000D02*
X36370D01*
X51370Y219000D02*
Y222000D01*
Y180000D02*
Y183000D01*
X-5630Y241000D02*
X10370D01*
X-5630Y162000D02*
Y241000D01*
Y162000D02*
X10370D01*
X370D02*
Y241000D01*
X7370Y233000D02*
Y241000D01*
Y163000D02*
Y233000D01*
X-14630Y146000D02*
Y256000D01*
X-26630Y146000D02*
X-14630D01*
X-26630Y256000D02*
X-14630D01*
X-13630Y236000D02*
X-9630D01*
X-13630Y166000D02*
X-9630D01*
X-36630Y203000D02*
X-14630D01*
X-19630Y208000D02*
X-14630Y203000D01*
Y203000D01*
Y202000D02*
Y203000D01*
Y203000D01*
X-15130Y202500D02*
X-14630D01*
X-19544Y197822D02*
X-14544Y202822D01*
X189000Y333000D02*
Y335000D01*
X187000D02*
X189000D01*
X119000D02*
X121000D01*
X119000Y333000D02*
Y335000D01*
Y265000D02*
Y267000D01*
Y265000D02*
X121000D01*
X188000Y264000D02*
X190000Y266000D01*
X62380Y207030D02*
X77620D01*
X62380D02*
Y234970D01*
X77620Y207030D02*
Y234970D01*
X62380D02*
X77620D01*
X62130Y206720D02*
X77370D01*
Y178780D02*
Y206720D01*
X62130Y178780D02*
Y206720D01*
Y178780D02*
X77370D01*
X210840Y213220D02*
X231160D01*
X210840Y248780D02*
X231160D01*
Y213220D02*
Y248780D01*
X210840Y213220D02*
Y248780D01*
X190840D02*
X211160D01*
X190840Y213220D02*
X211160D01*
X190840D02*
Y248780D01*
X211160Y213220D02*
Y248780D01*
X209840Y294720D02*
X230160D01*
X209840Y330280D02*
X230160D01*
Y294720D02*
Y330280D01*
X209840Y294720D02*
Y330280D01*
X165840Y247780D02*
X186160D01*
X165840Y212220D02*
X186160D01*
X165840D02*
Y247780D01*
X186160Y212220D02*
Y247780D01*
X12590Y423970D02*
X32910D01*
X12590Y459530D02*
X32910D01*
Y423970D02*
Y459530D01*
X12590Y423970D02*
Y459530D01*
X234720Y337840D02*
Y358160D01*
X270280Y337840D02*
Y358160D01*
X234720Y337840D02*
X270280D01*
X234720Y358160D02*
X270280D01*
X233220Y232840D02*
Y253160D01*
X268780Y232840D02*
Y253160D01*
X233220Y232840D02*
X268780D01*
X233220Y253160D02*
X268780D01*
X625840Y478780D02*
X646160D01*
X625840Y443220D02*
X646160D01*
X625840D02*
Y478780D01*
X646160Y443220D02*
Y478780D01*
X103840Y103220D02*
X124160D01*
X103840Y138780D02*
X124160D01*
Y103220D02*
Y138780D01*
X103840Y103220D02*
Y138780D01*
X197840Y99220D02*
X218160D01*
X197840Y134780D02*
X218160D01*
Y99220D02*
Y134780D01*
X197840Y99220D02*
Y134780D01*
X376220Y38840D02*
Y59160D01*
X411780Y38840D02*
Y59160D01*
X376220Y38840D02*
X411780D01*
X376220Y59160D02*
X411780D01*
X293840Y39220D02*
X314160D01*
X293840Y74780D02*
X314160D01*
Y39220D02*
Y74780D01*
X293840Y39220D02*
Y74780D01*
X344840Y38220D02*
X365160D01*
X344840Y73780D02*
X365160D01*
Y38220D02*
Y73780D01*
X344840Y38220D02*
Y73780D01*
X12220Y510840D02*
Y531160D01*
X47780Y510840D02*
Y531160D01*
X12220Y510840D02*
X47780D01*
X12220Y531160D02*
X47780D01*
X488780Y67840D02*
Y88160D01*
X453220Y67840D02*
Y88160D01*
X488780D01*
X453220Y67840D02*
X488780D01*
X472780Y219840D02*
Y240160D01*
X437220Y219840D02*
Y240160D01*
X472780D01*
X437220Y219840D02*
X472780D01*
X236220Y474840D02*
Y495160D01*
X271780Y474840D02*
Y495160D01*
X236220Y474840D02*
X271780D01*
X236220Y495160D02*
X271780D01*
X430780Y67840D02*
Y88160D01*
X395220Y67840D02*
Y88160D01*
X430780D01*
X395220Y67840D02*
X430780D01*
X430280Y89840D02*
Y110160D01*
X394720Y89840D02*
Y110160D01*
X430280D01*
X394720Y89840D02*
X430280D01*
X432220D02*
Y110160D01*
X467780Y89840D02*
Y110160D01*
X432220Y89840D02*
X467780D01*
X432220Y110160D02*
X467780D01*
X434780Y242840D02*
Y263160D01*
X399220Y242840D02*
Y263160D01*
X434780D01*
X399220Y242840D02*
X434780D01*
X202840Y448780D02*
X223160D01*
X202840Y413220D02*
X223160D01*
X202840D02*
Y448780D01*
X223160Y413220D02*
Y448780D01*
X437720Y242840D02*
Y263160D01*
X473280Y242840D02*
Y263160D01*
X437720Y242840D02*
X473280D01*
X437720Y263160D02*
X473280D01*
X640220Y116840D02*
Y137160D01*
X675780Y116840D02*
Y137160D01*
X640220Y116840D02*
X675780D01*
X640220Y137160D02*
X675780D01*
X210840Y175220D02*
X231160D01*
X210840Y210780D02*
X231160D01*
Y175220D02*
Y210780D01*
X210840Y175220D02*
Y210780D01*
X45220Y292840D02*
Y313160D01*
X80780Y292840D02*
Y313160D01*
X45220Y292840D02*
X80780D01*
X45220Y313160D02*
X80780D01*
X80220Y230840D02*
Y251160D01*
X115780Y230840D02*
Y251160D01*
X80220Y230840D02*
X115780D01*
X80220Y251160D02*
X115780D01*
X637590Y215780D02*
X657910D01*
X637590Y180220D02*
X657910D01*
X637590D02*
Y215780D01*
X657910Y180220D02*
Y215780D01*
X220840Y99220D02*
X241160D01*
X220840Y134780D02*
X241160D01*
Y99220D02*
Y134780D01*
X220840Y99220D02*
Y134780D01*
X570220Y320840D02*
Y341160D01*
X605780Y320840D02*
Y341160D01*
X570220Y320840D02*
X605780D01*
X570220Y341160D02*
X605780D01*
X188840Y211280D02*
X209160D01*
X188840Y175720D02*
X209160D01*
X188840D02*
Y211280D01*
X209160Y175720D02*
Y211280D01*
X488030Y46340D02*
Y66660D01*
X452470Y46340D02*
Y66660D01*
X488030D01*
X452470Y46340D02*
X488030D01*
X431840Y88780D02*
X452160D01*
X431840Y53220D02*
X452160D01*
X431840D02*
Y88780D01*
X452160Y53220D02*
Y88780D01*
X122220Y226840D02*
Y247160D01*
X157780Y226840D02*
Y247160D01*
X122220Y226840D02*
X157780D01*
X122220Y247160D02*
X157780D01*
X620490Y470122D02*
X622156D01*
X621323D01*
Y475120D01*
X620490Y474287D01*
X285972Y101665D02*
X288638D01*
X287305D01*
Y109663D01*
X285972Y108330D01*
X297968Y109663D02*
X292637D01*
Y105664D01*
X295302Y106997D01*
X296635D01*
X297968Y105664D01*
Y102998D01*
X296635Y101665D01*
X293969D01*
X292637Y102998D01*
X151640Y72071D02*
X148975D01*
X150308D01*
Y65406D01*
X148975Y64073D01*
X147642D01*
X146309Y65406D01*
X154306Y64073D02*
Y72071D01*
X158305D01*
X159638Y70738D01*
Y68072D01*
X158305Y66739D01*
X154306D01*
X166302Y64073D02*
Y72071D01*
X162304Y68072D01*
X167635D01*
D11*
X201236Y262000D02*
G03*
X201236Y262000I-2236J0D01*
G01*
D12*
X8500Y301250D02*
X14500D01*
X599000Y242000D02*
Y248000D01*
D13*
X18500Y268250D02*
Y299250D01*
X4500Y268250D02*
X18500D01*
X4500D02*
Y299250D01*
X601000Y238000D02*
X632000D01*
Y252000D01*
X608076D02*
X632000D01*
D14*
X711484Y375375D02*
X708944Y377914D01*
X703866D01*
X701327Y375375D01*
Y372836D01*
X703866Y370297D01*
X708944D01*
X711484Y367757D01*
Y365218D01*
X708944Y362679D01*
X703866D01*
X701327Y365218D01*
X726719Y375375D02*
X724180Y377914D01*
X719101D01*
X716562Y375375D01*
Y365218D01*
X719101Y362679D01*
X724180D01*
X726719Y365218D01*
X731797Y377914D02*
Y362679D01*
Y367757D01*
X741954Y377914D01*
X734336Y370297D01*
X741954Y362679D01*
X747032Y377914D02*
X757189D01*
X752111D01*
Y362679D01*
X787659Y377914D02*
X777502D01*
Y370297D01*
X782581D01*
X777502D01*
Y362679D01*
X800355Y377914D02*
X795277D01*
X792737Y375375D01*
Y365218D01*
X795277Y362679D01*
X800355D01*
X802894Y365218D01*
Y375375D01*
X800355Y377914D01*
X807972Y362679D02*
Y377914D01*
X815590D01*
X818129Y375375D01*
Y370297D01*
X815590Y367757D01*
X807972D01*
X813051D02*
X818129Y362679D01*
X838443Y377914D02*
Y365218D01*
X840982Y362679D01*
X846060D01*
X848599Y365218D01*
Y377914D01*
X853678Y362679D02*
X858756D01*
X856217D01*
Y377914D01*
X853678Y375375D01*
X123140Y438380D02*
X128218D01*
X125679D01*
Y453615D01*
X123140Y451076D01*
X408940Y530860D02*
Y525782D01*
Y528321D01*
X424175D01*
X421636Y530860D01*
X287020Y2540D02*
Y7618D01*
Y5079D01*
X271785D01*
X274324Y2540D01*
X627380Y530860D02*
Y525782D01*
Y528321D01*
X642615D01*
X640076Y530860D01*
X515620Y2540D02*
Y7618D01*
Y5079D01*
X500385D01*
X502924Y2540D01*
X123820Y65140D02*
Y70218D01*
Y67679D01*
X108585D01*
X111124Y65140D01*
X1778Y465582D02*
X6856D01*
X4317D01*
Y480817D01*
X1778Y478278D01*
X4064Y377952D02*
X9142D01*
X6603D01*
Y393187D01*
X4064Y390648D01*
X72136Y345440D02*
X77214D01*
X74675D01*
Y360675D01*
X72136Y358136D01*
X264540Y401998D02*
X271204D01*
X267872D01*
Y392002D01*
X264540Y377002D02*
Y386998D01*
X269538D01*
X271204Y385332D01*
Y382000D01*
X269538Y380334D01*
X264540D01*
X267872D02*
X271204Y377002D01*
X544128Y99396D02*
X537464D01*
X544128Y106060D01*
Y107726D01*
X542462Y109392D01*
X539130D01*
X537464Y107726D01*
X554125Y109392D02*
X547461D01*
Y104394D01*
X550793Y106060D01*
X552459D01*
X554125Y104394D01*
Y101062D01*
X552459Y99396D01*
X549127D01*
X547461Y101062D01*
X258064Y208362D02*
X261396D01*
X259730D01*
Y218358D01*
X258064Y216692D01*
X271393Y208362D02*
Y218358D01*
X266395Y213360D01*
X273059D01*
X397998Y221540D02*
Y224872D01*
Y223206D01*
X388002D01*
X389668Y221540D01*
Y229871D02*
X388002Y231537D01*
Y234869D01*
X389668Y236535D01*
X396332D01*
X397998Y234869D01*
Y231537D01*
X396332Y229871D01*
X389668D01*
X523046Y230550D02*
X516382D01*
Y225552D01*
X519714Y227218D01*
X521380D01*
X523046Y225552D01*
Y222220D01*
X521380Y220554D01*
X518048D01*
X516382Y222220D01*
X8538Y322002D02*
Y331998D01*
X3540Y327000D01*
X10204D01*
X5080Y354106D02*
X6746Y355772D01*
X10078D01*
X11745Y354106D01*
Y352440D01*
X10078Y350774D01*
X8412D01*
X10078D01*
X11745Y349108D01*
Y347442D01*
X10078Y345776D01*
X6746D01*
X5080Y347442D01*
X78204Y324002D02*
X71540D01*
X78204Y330666D01*
Y332332D01*
X76538Y333998D01*
X73206D01*
X71540Y332332D01*
X40640Y438068D02*
X43972D01*
X42306D01*
Y428072D01*
X40640D01*
X43972D01*
X55635Y436402D02*
X53969Y438068D01*
X50637D01*
X48971Y436402D01*
Y429738D01*
X50637Y428072D01*
X53969D01*
X55635Y429738D01*
X65632Y436402D02*
X63966Y438068D01*
X60634D01*
X58967Y436402D01*
Y434736D01*
X60634Y433070D01*
X63966D01*
X65632Y431404D01*
Y429738D01*
X63966Y428072D01*
X60634D01*
X58967Y429738D01*
X68964Y428072D02*
Y438068D01*
X73963D01*
X75629Y436402D01*
Y433070D01*
X73963Y431404D01*
X68964D01*
X78961Y428072D02*
X82293D01*
X80627D01*
Y438068D01*
X78961Y436402D01*
X587998Y262540D02*
X578002D01*
Y267538D01*
X579668Y269205D01*
X583000D01*
X584666Y267538D01*
Y262540D01*
Y265872D02*
X587998Y269205D01*
X578002Y279201D02*
Y272537D01*
X587998D01*
Y279201D01*
X583000Y272537D02*
Y275869D01*
X579668Y289198D02*
X578002Y287532D01*
Y284200D01*
X579668Y282534D01*
X581334D01*
X583000Y284200D01*
Y287532D01*
X584666Y289198D01*
X586332D01*
X587998Y287532D01*
Y284200D01*
X586332Y282534D01*
X578002Y299195D02*
Y292530D01*
X587998D01*
Y299195D01*
X583000Y292530D02*
Y295863D01*
X578002Y302527D02*
Y309192D01*
Y305859D01*
X587998D01*
X179002Y31540D02*
X187332D01*
X188998Y33206D01*
Y36538D01*
X187332Y38205D01*
X179002D01*
X180668Y48201D02*
X179002Y46535D01*
Y43203D01*
X180668Y41537D01*
X182334D01*
X184000Y43203D01*
Y46535D01*
X185666Y48201D01*
X187332D01*
X188998Y46535D01*
Y43203D01*
X187332Y41537D01*
X179002Y58198D02*
Y51534D01*
X188998D01*
Y58198D01*
X184000Y51534D02*
Y54866D01*
X188998Y61530D02*
X179002D01*
Y66529D01*
X180668Y68195D01*
X184000D01*
X185666Y66529D01*
Y61530D01*
Y64863D02*
X188998Y68195D01*
X107336Y433998D02*
X104003D01*
X105669D01*
Y425668D01*
X104003Y424002D01*
X102337D01*
X100671Y425668D01*
X110668Y424002D02*
Y433998D01*
X115666D01*
X117332Y432332D01*
Y429000D01*
X115666Y427334D01*
X110668D01*
X120665Y432332D02*
X122331Y433998D01*
X125663D01*
X127329Y432332D01*
Y430666D01*
X125663Y429000D01*
X123997D01*
X125663D01*
X127329Y427334D01*
Y425668D01*
X125663Y424002D01*
X122331D01*
X120665Y425668D01*
X-28482Y274505D02*
X-31814D01*
X-30148D01*
Y266174D01*
X-31814Y264508D01*
X-33480D01*
X-35146Y266174D01*
X-25149Y274505D02*
X-18485D01*
Y272839D01*
X-25149Y266174D01*
Y264508D01*
X320334Y490998D02*
X317002D01*
X318668D01*
Y482668D01*
X317002Y481002D01*
X315336D01*
X313669Y482668D01*
X328665Y481002D02*
Y490998D01*
X323666Y486000D01*
X330331D01*
X-1158Y416224D02*
X-4490D01*
X-2824D01*
Y407894D01*
X-4490Y406228D01*
X-6156D01*
X-7823Y407894D01*
X8839Y416224D02*
X5506Y414558D01*
X2174Y411226D01*
Y407894D01*
X3840Y406228D01*
X7172D01*
X8839Y407894D01*
Y409560D01*
X7172Y411226D01*
X2174D01*
X-1666Y505998D02*
X-4998D01*
X-3332D01*
Y497668D01*
X-4998Y496002D01*
X-6665D01*
X-8331Y497668D01*
X8331Y505998D02*
X1666D01*
Y501000D01*
X4998Y502666D01*
X6665D01*
X8331Y501000D01*
Y497668D01*
X6665Y496002D01*
X3332D01*
X1666Y497668D01*
X528334Y480998D02*
X525002D01*
X526668D01*
Y472668D01*
X525002Y471002D01*
X523335D01*
X521669Y472668D01*
X531666Y479332D02*
X533332Y480998D01*
X536665D01*
X538331Y479332D01*
Y477666D01*
X536665Y476000D01*
X534998D01*
X536665D01*
X538331Y474334D01*
Y472668D01*
X536665Y471002D01*
X533332D01*
X531666Y472668D01*
X562334Y52998D02*
X559002D01*
X560668D01*
Y44668D01*
X559002Y43002D01*
X557336D01*
X555669Y44668D01*
X572331Y43002D02*
X565666D01*
X572331Y49666D01*
Y51332D01*
X570664Y52998D01*
X567332D01*
X565666Y51332D01*
X423000Y52998D02*
X419668D01*
X421334D01*
Y44668D01*
X419668Y43002D01*
X418002D01*
X416335Y44668D01*
X426332Y43002D02*
X429664D01*
X427998D01*
Y52998D01*
X426332Y51332D01*
D15*
X478Y365973D02*
X-1188D01*
X-355D01*
Y361808D01*
X-1188Y360975D01*
X-2021D01*
X-2855Y361808D01*
X2144Y360975D02*
Y365973D01*
X4643D01*
X5476Y365140D01*
Y363474D01*
X4643Y362641D01*
X2144D01*
X10474Y360975D02*
X7142D01*
X10474Y364307D01*
Y365140D01*
X9641Y365973D01*
X7975D01*
X7142Y365140D01*
X681007Y450563D02*
X679674D01*
X680340D01*
Y447231D01*
X679674Y446565D01*
X679007D01*
X678341Y447231D01*
X682340Y446565D02*
Y450563D01*
X684339D01*
X685005Y449897D01*
Y448564D01*
X684339Y447898D01*
X682340D01*
X686338Y446565D02*
X687671D01*
X687005D01*
Y450563D01*
X686338Y449897D01*
M02*
