G04*
G04 #@! TF.GenerationSoftware,Altium Limited,Altium Designer,26.3.0 (6)*
G04*
G04 Layer_Physical_Order=1*
G04 Layer_Color=255*
%FSLAX44Y44*%
%MOMM*%
G71*
G04*
G04 #@! TF.SameCoordinates,42E91EB3-116B-40EE-AB62-CD4AD7042EDC*
G04*
G04*
G04 #@! TF.FilePolarity,Positive*
G04*
G01*
G75*
%ADD10C,0.2000*%
%ADD11C,0.5000*%
%ADD12C,0.4000*%
%ADD16R,0.7000X1.3000*%
%ADD17R,1.3000X0.7000*%
%ADD18R,1.6000X3.0000*%
%ADD19R,3.5000X2.2000*%
%ADD20R,0.6000X2.2000*%
%ADD21R,2.7000X2.0000*%
%ADD22R,2.6000X2.5000*%
%ADD23R,2.5000X2.6000*%
%ADD24R,1.0000X0.5500*%
%ADD25R,0.5500X1.0000*%
%ADD26R,0.8000X0.8000*%
%ADD27R,1.3500X0.4000*%
%ADD28R,1.4000X1.6000*%
%ADD29R,1.9000X1.9000*%
%ADD30R,0.5500X1.5000*%
%ADD31R,1.5000X0.5500*%
%ADD32R,0.6858X0.5588*%
%ADD33R,0.5588X0.6858*%
%ADD34R,0.9000X0.6000*%
%ADD35R,1.3000X0.9000*%
%ADD36R,0.9000X1.3000*%
%ADD66C,1.9000*%
%ADD67R,1.9000X1.9000*%
%ADD71C,0.3000*%
%ADD72C,0.3000*%
%ADD73C,1.0160*%
%ADD74C,1.0000*%
%ADD75C,0.6000*%
%ADD76C,0.8000*%
%ADD77R,2.0000X1.6000*%
%ADD78O,2.0000X1.6000*%
%ADD79C,3.2000*%
%ADD80O,1.6000X2.0000*%
%ADD81R,1.6000X2.0000*%
%ADD82C,4.0000*%
%ADD83C,7.4000*%
%ADD84C,1.7000*%
%ADD85R,1.7000X1.7000*%
G04:AMPARAMS|DCode=86|XSize=2mm|YSize=1.2mm|CornerRadius=0.3mm|HoleSize=0mm|Usage=FLASHONLY|Rotation=0.000|XOffset=0mm|YOffset=0mm|HoleType=Round|Shape=RoundedRectangle|*
%AMROUNDEDRECTD86*
21,1,2.0000,0.6000,0,0,0.0*
21,1,1.4000,1.2000,0,0,0.0*
1,1,0.6000,0.7000,-0.3000*
1,1,0.6000,-0.7000,-0.3000*
1,1,0.6000,-0.7000,0.3000*
1,1,0.6000,0.7000,0.3000*
%
%ADD86ROUNDEDRECTD86*%
%ADD87C,0.6000*%
G36*
X644000Y397000D02*
X646665Y394334D01*
X646369Y393100D01*
X645045Y392669D01*
X639435Y389811D01*
X634342Y386110D01*
X629890Y381658D01*
X626189Y376565D01*
X623330Y370955D01*
X621385Y364967D01*
X620400Y358748D01*
Y352452D01*
X621385Y346233D01*
X623330Y340245D01*
X626189Y334635D01*
X629890Y329542D01*
X634342Y325090D01*
X639435Y321389D01*
X645045Y318531D01*
X651033Y316585D01*
X657252Y315600D01*
X663548D01*
X669767Y316585D01*
X675755Y318531D01*
X680730Y321066D01*
X682000Y320326D01*
Y297000D01*
X679000Y296000D01*
X591904D01*
X591013Y296904D01*
X591655Y342500D01*
X604000D01*
Y361500D01*
X601328D01*
Y366000D01*
X604000D01*
Y380000D01*
X590000D01*
Y367000D01*
X587000D01*
X586000Y366000D01*
X575000D01*
Y384000D01*
X566000D01*
Y402482D01*
X567518Y404000D01*
X572515D01*
X572601Y403913D01*
X574807Y403000D01*
X577193D01*
X579399Y403913D01*
X579485Y404000D01*
X616000D01*
X630000Y418000D01*
X644000D01*
Y397000D01*
D02*
G37*
G36*
X100000Y424000D02*
X131000D01*
Y402615D01*
X130099Y401720D01*
X89000Y401987D01*
Y415000D01*
X81000Y423000D01*
X35000D01*
Y419939D01*
X33730Y419413D01*
X32461Y420682D01*
X29839Y422196D01*
X26914Y422980D01*
X23886D01*
X20961Y422196D01*
X18339Y420682D01*
X17270Y419613D01*
X16000Y420140D01*
Y440000D01*
X85000D01*
X100000Y424000D01*
D02*
G37*
G36*
X385613Y496391D02*
X388288Y495283D01*
X390826Y494949D01*
X392336Y391227D01*
X391126Y390000D01*
X369000D01*
Y495436D01*
X371307Y496391D01*
X373404Y498000D01*
X383516D01*
X385613Y496391D01*
D02*
G37*
G36*
X53000Y245000D02*
Y231150D01*
X52500Y229944D01*
Y227556D01*
X52892Y226610D01*
Y225000D01*
X40000D01*
X39000Y224000D01*
Y219000D01*
X38995D01*
Y209000D01*
Y202500D01*
Y196000D01*
Y189500D01*
X56172D01*
Y173757D01*
X56172Y173757D01*
X56482Y172197D01*
X57366Y170874D01*
X58000Y170240D01*
Y166000D01*
X79250D01*
Y164000D01*
X92250D01*
Y181000D01*
X110000D01*
X116000Y187000D01*
X140500D01*
Y162000D01*
X141341D01*
X141827Y160827D01*
X126000Y145000D01*
Y124000D01*
X105000D01*
Y119000D01*
X104500D01*
Y117658D01*
X104174Y117170D01*
X103941Y116000D01*
Y79000D01*
X103941Y79000D01*
X104174Y77829D01*
X104837Y76837D01*
X105000Y76674D01*
Y75000D01*
X107704D01*
X108000Y74941D01*
X108000Y74941D01*
X125000D01*
X125295Y75000D01*
X140879D01*
X141600Y74905D01*
X142321Y75000D01*
X158705D01*
X159000Y74941D01*
X166725D01*
X167000Y74905D01*
X167274Y74941D01*
X185000D01*
X185296Y75000D01*
X186000D01*
X187000Y74000D01*
X188000Y75000D01*
Y77705D01*
X188059Y78000D01*
Y92941D01*
X212000D01*
Y4000D01*
X175115D01*
X174336Y5270D01*
X176770Y10045D01*
X178715Y16033D01*
X179700Y22252D01*
Y28548D01*
X178715Y34767D01*
X176770Y40755D01*
X173911Y46365D01*
X170210Y51458D01*
X165758Y55910D01*
X160665Y59611D01*
X155055Y62470D01*
X149067Y64415D01*
X142848Y65400D01*
X136552D01*
X130333Y64415D01*
X124345Y62470D01*
X118735Y59611D01*
X113642Y55910D01*
X109190Y51458D01*
X105489Y46365D01*
X102631Y40755D01*
X100685Y34767D01*
X99700Y28548D01*
Y22252D01*
X100685Y16033D01*
X102631Y10045D01*
X105064Y5270D01*
X104285Y4000D01*
X91000D01*
X90000Y5000D01*
Y47000D01*
X61000D01*
Y81000D01*
X91000D01*
X92000Y82000D01*
Y84728D01*
X92163Y84837D01*
X92163Y84837D01*
X93163Y85837D01*
X93826Y86830D01*
X94059Y88000D01*
X93826Y89171D01*
X93163Y90163D01*
X92059Y91267D01*
Y123000D01*
X92000Y123295D01*
Y125000D01*
X91272D01*
X91163Y125163D01*
X90170Y125826D01*
X89000Y126059D01*
X82000D01*
X80829Y125826D01*
X79837Y125163D01*
X79674Y125000D01*
X65000D01*
X56000Y116000D01*
Y115000D01*
X5000D01*
X4000Y115000D01*
X3000Y116000D01*
X2000D01*
Y243804D01*
X2987Y244683D01*
X4000Y244500D01*
Y244500D01*
X17000D01*
Y245000D01*
X23000D01*
Y244500D01*
X36000D01*
Y245000D01*
X51000D01*
X52000Y246000D01*
X53000Y245000D01*
D02*
G37*
G36*
X89000Y90000D02*
X91000Y88000D01*
X90000Y87000D01*
X4000D01*
Y111000D01*
X57000D01*
X65000Y119000D01*
X80000D01*
Y121000D01*
X82000Y123000D01*
X89000D01*
Y90000D01*
D02*
G37*
G36*
X190000Y115000D02*
X213000D01*
X215000Y113000D01*
Y96000D01*
X185000D01*
Y78000D01*
X159000D01*
Y79000D01*
Y99000D01*
X166000D01*
X170000Y103000D01*
Y125699D01*
X170301Y126000D01*
X190000D01*
Y115000D01*
D02*
G37*
G36*
X152000Y124940D02*
Y103000D01*
X126000D01*
Y78414D01*
X125000Y78000D01*
X108000D01*
X107000Y79000D01*
Y116000D01*
X131000D01*
X132000Y117000D01*
Y125000D01*
X151541D01*
X152000Y124940D01*
D02*
G37*
G36*
X427000Y92000D02*
X433000Y86000D01*
X450000D01*
Y71414D01*
X449000Y71000D01*
X417000D01*
Y107000D01*
X408000Y116000D01*
Y136000D01*
X427000D01*
Y92000D01*
D02*
G37*
G36*
X485179Y98821D02*
Y48000D01*
X476000D01*
X475000Y49000D01*
Y90409D01*
X475117Y91000D01*
X475000Y91591D01*
Y92193D01*
Y100000D01*
X484000D01*
X485179Y98821D01*
D02*
G37*
G36*
X423000Y53000D02*
X443000Y33000D01*
Y15000D01*
X398000D01*
Y67000D01*
X423000D01*
Y53000D01*
D02*
G37*
G36*
X389000Y78000D02*
Y20000D01*
X392000Y17000D01*
X390000Y15000D01*
X373000D01*
Y39000D01*
X376000Y42000D01*
X377000D01*
Y68000D01*
X367000Y78000D01*
X325000D01*
Y87000D01*
X380000D01*
X389000Y78000D01*
D02*
G37*
G36*
X364000Y15000D02*
X344000D01*
Y41000D01*
X324000D01*
Y50674D01*
X325326Y52000D01*
X364000D01*
Y15000D01*
D02*
G37*
G36*
X340000Y59000D02*
X328000D01*
X314000Y45000D01*
Y15000D01*
X297000D01*
Y53000D01*
X309000D01*
X314000Y58000D01*
Y69000D01*
X340000D01*
Y59000D01*
D02*
G37*
G36*
X37000Y41000D02*
X41000Y37000D01*
X83000D01*
Y3659D01*
X81827Y3173D01*
X80000Y5000D01*
X3000Y5000D01*
Y75000D01*
X37000D01*
Y41000D01*
D02*
G37*
D10*
X87526Y342750D02*
X125250D01*
X70750Y359526D02*
X87526Y342750D01*
X125250D02*
X126000Y342000D01*
X61526Y368750D02*
X65771D01*
X70750Y363771D01*
Y359526D02*
Y363771D01*
X59276Y371000D02*
X61526Y368750D01*
X47730Y363750D02*
X63700D01*
X65750Y361700D01*
X48910Y371000D02*
X59276D01*
X65750Y356000D02*
X93750Y328000D01*
X65750Y356000D02*
Y361700D01*
X93750Y328000D02*
X112000D01*
X25400Y386080D02*
X47730Y363750D01*
X38800Y381109D02*
Y399480D01*
Y381109D02*
X48910Y371000D01*
X313500Y393500D02*
Y484060D01*
X292333Y505227D02*
X313500Y484060D01*
X283000Y363000D02*
X313500Y393500D01*
X306750Y403058D02*
Y419000D01*
X266692Y363000D02*
X306750Y403058D01*
X261000Y371000D02*
X300250Y410250D01*
Y429750D01*
X300250Y429750D02*
X300250Y429750D01*
X218000Y371000D02*
X261000D01*
X222250Y363000D02*
X266692D01*
X252250Y381000D02*
X270750Y399500D01*
Y418250D01*
X403000Y395000D02*
Y490642D01*
X391160Y502482D02*
X403000Y490642D01*
X326000Y318000D02*
X403000Y395000D01*
X416560Y392560D02*
Y508000D01*
X337000Y313000D02*
X416560Y392560D01*
X352000Y309000D02*
X455000Y412000D01*
Y505800D02*
X457200Y508000D01*
X455000Y412000D02*
Y505800D01*
X477000Y411000D02*
Y497743D01*
X482600Y503343D01*
X370000Y304000D02*
X477000Y411000D01*
X482600Y503343D02*
Y508000D01*
X352000Y240080D02*
Y309000D01*
X315850Y203930D02*
X352000Y240080D01*
X337000Y245000D02*
Y313000D01*
X298417Y206417D02*
X337000Y245000D01*
X326000Y247735D02*
Y318000D01*
X310601Y232337D02*
X326000Y247735D01*
X314000Y341000D02*
X357000Y384000D01*
Y499240D01*
X314000Y247000D02*
Y341000D01*
X357000Y499240D02*
X365760Y508000D01*
X391160Y502482D02*
Y508000D01*
X600000Y62400D02*
Y102702D01*
Y62400D02*
X635000Y27400D01*
Y25400D02*
Y27400D01*
X561000Y250000D02*
X584000Y227000D01*
X606750D01*
X606197Y473697D02*
X606940D01*
X551000Y241000D02*
X585821Y206179D01*
X591001D02*
X595250Y201930D01*
X585821Y206179D02*
X591001D01*
X561000Y250000D02*
Y403250D01*
X551000Y241000D02*
Y440450D01*
X541000Y233272D02*
Y450000D01*
X666500Y174750D02*
X667750Y176000D01*
X670750Y177757D02*
Y189500D01*
X667750Y176000D02*
X668993D01*
X670750Y177757D01*
X666500Y172500D02*
Y174750D01*
X600000Y102702D02*
X620650Y123352D01*
Y125730D01*
X591000Y46000D02*
Y115962D01*
Y46000D02*
X609600Y27400D01*
X595250Y120212D02*
Y125730D01*
X591000Y115962D02*
X595250Y120212D01*
X569850Y125730D02*
X572000Y123580D01*
Y37600D02*
Y123580D01*
Y37600D02*
X584200Y25400D01*
X547000Y39200D02*
Y115473D01*
X546937Y115535D02*
X547000Y115473D01*
X544450Y125730D02*
X546937Y123243D01*
Y115535D02*
Y123243D01*
X547000Y39200D02*
X558800Y27400D01*
X519050Y120423D02*
X524000Y115473D01*
X519050Y120423D02*
Y125730D01*
X524000Y34800D02*
X533400Y25400D01*
X524000Y34800D02*
Y115473D01*
X505000Y28400D02*
Y112380D01*
Y28400D02*
X508000Y25400D01*
X493650Y123730D02*
X505000Y112380D01*
X620650Y162979D02*
Y201930D01*
X495000Y153000D02*
X630629D01*
X620650Y201930D02*
Y215350D01*
Y162979D02*
X630629Y153000D01*
X637129Y146500D01*
X479750Y137750D02*
X495000Y153000D01*
X646500Y146500D02*
X647500Y145500D01*
X637129Y146500D02*
X646500D01*
X608743Y479743D02*
X635000Y506000D01*
X608743Y475500D02*
Y479743D01*
X606940Y473697D02*
X608743Y475500D01*
X562500Y429500D02*
X577000Y444000D01*
X562500Y421136D02*
Y429500D01*
X577000Y444000D02*
Y452500D01*
X579000Y454500D02*
X580000D01*
X577000Y452500D02*
X579000Y454500D01*
X388000Y296000D02*
X495000Y403000D01*
Y495000D02*
X508000Y508000D01*
X495000Y403000D02*
Y495000D01*
X530000Y451800D02*
X584200Y506000D01*
X530000Y221898D02*
Y451800D01*
Y221898D02*
X544450Y207448D01*
X541000Y450000D02*
X564500Y473500D01*
X541000Y233272D02*
X569850Y204422D01*
X561000Y403250D02*
X575750Y418000D01*
X551000Y440450D02*
X574550Y464000D01*
X517000Y203980D02*
Y466200D01*
X558800Y508000D01*
X517000Y203980D02*
X519050Y201930D01*
X506000Y480600D02*
X533400Y508000D01*
X493650Y201930D02*
X506000Y214280D01*
Y480600D01*
X388000Y225280D02*
Y296000D01*
X294937Y206417D02*
X298417D01*
X290450Y201930D02*
X294937Y206417D01*
X370000Y230680D02*
Y304000D01*
X243000Y262000D02*
X248500Y267500D01*
X250000Y269000D02*
X252000Y271000D01*
X248500Y267500D02*
X250000Y269000D01*
X203757Y267500D02*
X248500D01*
X202000Y269257D02*
X203757Y267500D01*
X202000Y269257D02*
Y270750D01*
X200750Y272000D02*
X202000Y270750D01*
X196000Y272000D02*
X200750D01*
X53750Y326350D02*
X71092D01*
X93442Y304000D01*
X665574Y171574D02*
X666500Y172500D01*
X489257Y20757D02*
Y107743D01*
X473250Y4750D02*
X489257Y20757D01*
X479750Y117250D02*
Y137750D01*
Y117250D02*
X489257Y107743D01*
X306570Y188430D02*
X341250Y153750D01*
X285687Y188430D02*
X306570D01*
X341250Y125730D02*
Y153750D01*
X303000Y248000D02*
Y354000D01*
X278950Y195167D02*
Y223950D01*
X303000Y248000D01*
X290324Y223324D02*
X314000Y247000D01*
X287250Y222750D02*
X287824Y223324D01*
X290324D01*
X303000Y354000D02*
X340360Y391360D01*
Y510000D01*
X292000Y357000D02*
X326000Y391000D01*
X292000Y246000D02*
Y357000D01*
X326000Y391000D02*
Y496960D01*
X273950Y227950D02*
X292000Y246000D01*
X283000D02*
Y363000D01*
X268950Y231950D02*
X283000Y246000D01*
X289560Y508000D02*
X292333Y505227D01*
X273950Y111757D02*
Y227950D01*
X268950Y107929D02*
Y231950D01*
X314960Y508000D02*
X326000Y496960D01*
X606750Y225007D02*
Y227000D01*
X612993Y223007D02*
X620650Y215350D01*
X606750Y225007D02*
X608750Y223007D01*
X612993D01*
X627950Y443600D02*
X628050Y443500D01*
X643950D02*
X644050Y443600D01*
X610600D02*
X627950D01*
X628050Y443500D02*
X643950D01*
X576000Y409000D02*
X610600Y443600D01*
X577074Y428574D02*
X603000Y454500D01*
X574574Y428574D02*
X577074D01*
X574000Y428000D02*
X574574Y428574D01*
X603000Y473500D02*
X606197D01*
X635000Y506000D02*
Y508000D01*
X574550Y464000D02*
X593500D01*
X603000Y473500D01*
X564500D02*
X583000D01*
X607113Y497613D01*
X544450Y201930D02*
Y207448D01*
X341250Y201930D02*
X370000Y230680D01*
X366650Y203930D02*
X388000Y225280D01*
X243000Y244500D02*
Y262000D01*
X241500Y243000D02*
X243000Y244500D01*
X243000Y329000D02*
X252000Y320000D01*
X243000Y329000D02*
Y348000D01*
X226500Y288500D02*
X240500Y302500D01*
Y309000D01*
X222000Y288500D02*
X226500D01*
X220000Y286500D02*
X222000Y288500D01*
X217000Y286500D02*
X220000D01*
X175250Y352250D02*
X204000Y381000D01*
X236250D01*
X175250Y343250D02*
Y352250D01*
X205679Y391750D02*
X220692D01*
X167250Y353321D02*
X205679Y391750D01*
X166000Y342000D02*
X167250Y343250D01*
Y353321D01*
X196000Y336750D02*
X222250Y363000D01*
X189000Y342000D02*
X218000Y371000D01*
X182000Y342000D02*
X189000D01*
X174000D02*
X175250Y343250D01*
X203250Y398250D02*
X218000D01*
X186500Y381500D02*
X203250Y398250D01*
X171000Y381500D02*
X186500D01*
X150000Y352778D02*
X171000Y373778D01*
Y381500D01*
X150000Y342000D02*
Y352778D01*
X132750Y343250D02*
Y352493D01*
X132243Y353000D02*
X132750Y352493D01*
X115000Y353000D02*
X132243D01*
X68750Y279500D02*
X84389D01*
X67500Y280750D02*
Y281500D01*
Y280750D02*
X68750Y279500D01*
X92608Y296000D02*
X112000D01*
X89608Y293000D02*
X92608Y296000D01*
X42000Y339750D02*
X65500D01*
X93250Y312000D01*
X93442Y304000D02*
X112000D01*
X93250Y312000D02*
X112000D01*
X55814Y349686D02*
X64993D01*
X94679Y320000D01*
X53750Y351750D02*
X55814Y349686D01*
X50800Y386080D02*
X51318Y384424D01*
X64613Y377062D02*
X64624Y377056D01*
X52164Y383578D02*
X64613Y377062D01*
X64769Y376986D02*
X66340Y376276D01*
X51318Y384424D02*
X52164Y383578D01*
X67939Y375321D02*
X67948Y375317D01*
X66998Y375916D02*
X67708Y375457D01*
X67948Y375317D02*
X94797Y361264D01*
X96000Y360061D02*
X96000Y358000D01*
Y353000D02*
Y358000D01*
X94797Y361264D02*
X96000Y360061D01*
X71240Y452000D02*
X101000D01*
X120000Y433000D01*
X50800Y472440D02*
X71240Y452000D01*
X120000Y433000D02*
X166500D01*
X179500Y442500D02*
X192000Y455000D01*
X269000D02*
X291500Y477500D01*
X192000Y455000D02*
X269000D01*
X166500Y442500D02*
X179500D01*
X166500Y433000D02*
Y442500D01*
X291500Y477500D02*
Y504394D01*
X266688Y468000D02*
X284188Y485500D01*
X248000Y468000D02*
X266688D01*
X284188Y485500D02*
X285000D01*
X103939Y467911D02*
X247911D01*
X248000Y468000D01*
X84556Y484524D02*
X103939Y467911D01*
X117855Y474145D02*
X158145D01*
X84000Y485000D02*
X84556Y484524D01*
X83637Y485156D02*
X84000Y485000D01*
X27500Y485750D02*
X71827D01*
X224750Y501127D02*
X224860Y501237D01*
Y515360D02*
X231750Y522250D01*
X224860Y501237D02*
Y515360D01*
X176000Y492000D02*
X224750D01*
X158145Y474145D02*
X176000Y492000D01*
X224750D02*
Y501127D01*
X79000Y513000D02*
X117855Y474145D01*
X65960Y513000D02*
X79000D01*
X50800Y497840D02*
X65960Y513000D01*
X165000Y245200D02*
X166000Y246200D01*
X165000Y206000D02*
Y245200D01*
X158000Y200000D02*
Y258000D01*
X144000Y395200D02*
X146000D01*
X76620Y386500D02*
X135300D01*
X95062Y379580D02*
X96982Y381500D01*
X135300Y386500D02*
X144000Y395200D01*
X96982Y381500D02*
X150563D01*
X94250Y379580D02*
X95062D01*
X150563Y381500D02*
X159500Y390437D01*
X76200Y386080D02*
X76620Y386500D01*
X146000Y409007D02*
X147757Y407250D01*
X157743D01*
X159500Y390437D02*
Y405493D01*
X146000Y409007D02*
Y420600D01*
X157743Y407250D02*
X159500Y405493D01*
X62007Y172000D02*
X86500D01*
X60250Y173757D02*
X62007Y172000D01*
X60250Y173757D02*
Y192672D01*
X48815Y194429D02*
X58493D01*
X60250Y192672D01*
X108000Y195750D02*
X118250D01*
X609000Y263000D02*
X674000D01*
X627000Y245000D02*
X643500D01*
X646000Y242500D01*
X672000D02*
X674000Y244500D01*
Y263000D01*
X646000Y242500D02*
X672000D01*
X48745Y201000D02*
X68500D01*
X70000Y199500D01*
X62500Y207500D02*
X68500Y213500D01*
X48745Y207500D02*
X62500D01*
X68500Y213500D02*
X70000D01*
Y199500D02*
X84500D01*
X66550Y293000D02*
X89608D01*
X597000Y373000D02*
X597250Y372750D01*
Y352250D02*
Y372750D01*
X33798Y347952D02*
X42000Y339750D01*
X63000Y296550D02*
X66550Y293000D01*
X48750Y313000D02*
X59450D01*
X63000Y296550D02*
Y309450D01*
X59450Y313000D02*
X63000Y309450D01*
X105250Y369500D02*
X105750D01*
X106050Y369800D01*
X146000D01*
X94679Y320000D02*
X112000D01*
X36379Y325371D02*
X48750Y313000D01*
X278950Y195167D02*
X285687Y188430D01*
X273950Y111757D02*
X275707Y110000D01*
X352920D01*
X366650Y123730D01*
X251000Y168000D02*
Y196250D01*
X248000Y149000D02*
X251000D01*
X243500Y144500D02*
X248000Y149000D01*
X230500Y144500D02*
X243500D01*
X203500Y154000D02*
Y163500D01*
Y154000D02*
X204750Y152750D01*
X213000D01*
X219500Y146250D01*
Y117000D02*
Y146250D01*
Y117000D02*
X229000Y107500D01*
X231000D01*
X271000Y91000D02*
X273000Y89000D01*
Y88000D02*
Y89000D01*
X245192Y107007D02*
X261200Y91000D01*
X271000D01*
X231000Y107500D02*
X231493Y107007D01*
X245192D01*
X276000Y67500D02*
X278000Y69500D01*
X283871D01*
X284750Y70379D01*
Y72757D01*
X291000Y87000D02*
X291493Y86507D01*
X284750Y72757D02*
X291493Y79500D01*
Y86507D01*
X258000Y82500D02*
X273000Y67500D01*
X245750Y82500D02*
X258000D01*
X245750Y17500D02*
Y82500D01*
X386500Y100000D02*
Y103000D01*
X392050Y108550D01*
Y125730D01*
X70000Y213500D02*
X84500D01*
X166000Y246200D02*
Y258000D01*
X105500Y218000D02*
X114500D01*
X87500Y194500D02*
Y197000D01*
X85500Y199000D02*
X87500Y197000D01*
X86500Y215500D02*
Y218000D01*
X84500Y213500D02*
X86500Y215500D01*
X86250Y243250D02*
X88500Y241000D01*
X58000Y243250D02*
X86250D01*
X58000D02*
Y254500D01*
X48500D02*
X58000D01*
X48000Y254000D02*
X48500Y254500D01*
X29500Y254000D02*
X48000D01*
X10250Y254250D02*
X10500Y254000D01*
X10250Y254250D02*
Y273750D01*
X10000Y274000D02*
X10250Y273750D01*
X10635Y274000D02*
X12135Y275500D01*
X30000D01*
X111500Y272500D02*
X112000Y272000D01*
X100000Y272500D02*
X111500D01*
X93000Y279500D02*
X100000Y272500D01*
X90000Y279500D02*
X93000D01*
X251500Y320000D02*
X252000D01*
X240500Y309000D02*
X251500Y320000D01*
X210500Y280000D02*
X217000Y286500D01*
X196000Y280000D02*
X210500D01*
X225192Y396250D02*
X236000D01*
X220692Y391750D02*
X225192Y396250D01*
X252000D02*
X263500Y407750D01*
Y436750D01*
X270750Y439000D02*
Y442000D01*
X268750Y437000D02*
X270750Y439000D01*
X263750Y437000D02*
X268750D01*
X263500Y436750D02*
X263750Y437000D01*
X252250Y440750D02*
X252500Y441000D01*
X252250Y421250D02*
Y440750D01*
X252000Y421000D02*
X252250Y421250D01*
X38800Y399480D02*
X50800Y411480D01*
X25433Y483683D02*
X27500Y485750D01*
X25400Y472440D02*
X25433Y479440D01*
Y483683D01*
X271879Y105000D02*
X299250D01*
X231750Y522250D02*
X328110D01*
X299250Y105000D02*
X304250Y100000D01*
X268950Y107929D02*
X271879Y105000D01*
X304250Y100000D02*
X367500D01*
X328110Y522250D02*
X340360Y510000D01*
X417450Y201930D02*
Y203930D01*
X427500Y213980D01*
Y231000D01*
Y234000D01*
X429500Y236000D01*
X431000D01*
X446000Y251000D01*
Y253000D01*
Y268000D01*
X461500Y283500D01*
Y284000D01*
X392050Y201930D02*
Y203550D01*
X408500Y220000D01*
Y231000D01*
Y234000D01*
X410500Y236000D01*
X411500D01*
X426500Y251000D01*
Y253000D01*
Y264000D01*
X423500Y267000D02*
X426500Y264000D01*
X423500Y267000D02*
Y273000D01*
X412500Y284000D02*
X423500Y273000D01*
X657000Y170250D02*
Y174750D01*
X659000Y176750D01*
Y199500D01*
X651000Y207500D02*
X659000Y199500D01*
X649000Y207500D02*
X651000D01*
X649000D02*
Y223500D01*
X597250Y352250D02*
X597500Y352000D01*
X661300Y418200D02*
X662000D01*
X647000Y432500D02*
X661300Y418200D01*
X636000Y432500D02*
X647000D01*
X660500Y470500D02*
X662000Y469000D01*
X636000Y470500D02*
X660500D01*
X333757Y4750D02*
X473250D01*
X332000Y6507D02*
X333757Y4750D01*
X332000Y6507D02*
Y23600D01*
X330200Y25400D02*
X332000Y23600D01*
X644050Y443600D02*
X662000D01*
X196000Y328000D02*
Y336750D01*
X562500Y421136D02*
X562605Y421031D01*
X569850Y201930D02*
Y204422D01*
X603000Y454500D02*
X606000D01*
X665574Y163574D02*
Y171574D01*
X665000Y163000D02*
X665574Y163574D01*
X621500Y451250D02*
X621750Y451500D01*
X636000D01*
X295250Y157000D02*
X300750Y162500D01*
X295250Y136048D02*
Y157000D01*
X290450Y125730D02*
Y131248D01*
X295250Y136048D01*
X295070Y181930D02*
X315850Y161150D01*
Y125730D02*
Y161150D01*
X286750Y181930D02*
X295070D01*
X607113Y505513D02*
X609600Y508000D01*
X607113Y497613D02*
Y505513D01*
X366650Y123730D02*
Y125730D01*
X315850Y201930D02*
Y203930D01*
X584200Y506000D02*
Y508000D01*
X558800Y25400D02*
Y27400D01*
X493650Y123730D02*
Y125730D01*
X609600Y25400D02*
Y27400D01*
X366650Y201930D02*
Y203930D01*
D11*
X58500Y220271D02*
Y228750D01*
X57750Y219521D02*
X58500Y220271D01*
X57750Y219250D02*
Y219521D01*
X187000Y179500D02*
Y230250D01*
X186750Y179250D02*
X187000Y179500D01*
X57559Y219059D02*
X57750Y219250D01*
X54321Y214000D02*
X57559Y217238D01*
Y219059D01*
X48745Y214000D02*
X54321D01*
X182250Y251750D02*
X190500Y243500D01*
X182250Y251750D02*
Y257750D01*
X182000Y258000D02*
X182250Y257750D01*
X191571Y243000D02*
X196000D01*
X191071Y243500D02*
X191571Y243000D01*
X190500Y243500D02*
X191071D01*
X196000Y243000D02*
X198000Y241000D01*
X211250Y296250D02*
X218000Y303000D01*
X196250Y296250D02*
X211250D01*
X196000Y296000D02*
X196250Y296250D01*
X195750D02*
X196000Y296000D01*
X181265Y296250D02*
X195750D01*
X177500Y292485D02*
X181265Y296250D01*
X177500Y279282D02*
Y292485D01*
Y279282D02*
X182000Y274782D01*
Y258000D02*
Y274782D01*
X216500Y224000D02*
Y224500D01*
X219000Y221500D02*
X221000D01*
X203000Y205500D02*
X209500Y212000D01*
X203000Y205250D02*
Y205500D01*
X216500Y224000D02*
X219000Y221500D01*
X200500Y202750D02*
X203000Y205250D01*
X198000Y241000D02*
X200000D01*
X209500Y212000D02*
X219000Y221500D01*
X198500Y202750D02*
X200500D01*
X200000Y241000D02*
X216500Y224500D01*
X130500Y214000D02*
Y237000D01*
X230500Y163500D02*
Y176000D01*
X223000Y183500D02*
X230500Y176000D01*
D12*
X133000Y241500D02*
X136500D01*
X141478Y246478D01*
Y257478D01*
X142000Y258000D01*
X130500Y239000D02*
X133000Y241500D01*
X130500Y237000D02*
Y239000D01*
Y237000D02*
X130500Y237000D01*
D16*
X114046Y353060D02*
D03*
X95046D02*
D03*
X290000Y442000D02*
D03*
X271000D02*
D03*
X270750Y418250D02*
D03*
X289750D02*
D03*
X86500Y218000D02*
D03*
X105500D02*
D03*
X105500Y196000D02*
D03*
X86500D02*
D03*
X85750Y173500D02*
D03*
X104750D02*
D03*
X367500Y100000D02*
D03*
X386500D02*
D03*
X606750Y227000D02*
D03*
X625750D02*
D03*
X233500Y441000D02*
D03*
X252500D02*
D03*
X427500Y231000D02*
D03*
X408500D02*
D03*
X597500Y352000D02*
D03*
X578500D02*
D03*
X29500Y254000D02*
D03*
X10500D02*
D03*
X273000Y88000D02*
D03*
X292000D02*
D03*
X130500Y214000D02*
D03*
X149500D02*
D03*
D17*
X170750Y400500D02*
D03*
Y381500D02*
D03*
X90000Y279500D02*
D03*
Y260500D02*
D03*
X220000Y286500D02*
D03*
Y267500D02*
D03*
X606000Y454500D02*
D03*
Y473500D02*
D03*
X580000D02*
D03*
Y454500D02*
D03*
X636000Y413500D02*
D03*
Y432500D02*
D03*
X669000Y190000D02*
D03*
Y209000D02*
D03*
X30000Y294500D02*
D03*
Y275500D02*
D03*
X669290Y242418D02*
D03*
Y223418D02*
D03*
X276000Y48500D02*
D03*
Y67500D02*
D03*
X251000Y149000D02*
D03*
Y168000D02*
D03*
X648970Y242062D02*
D03*
Y223062D02*
D03*
X332000Y64500D02*
D03*
Y83500D02*
D03*
Y64500D02*
D03*
Y45500D02*
D03*
D18*
X73000Y143000D02*
D03*
Y102000D02*
D03*
X71750Y63500D02*
D03*
Y22500D02*
D03*
D19*
X161000Y176000D02*
D03*
D20*
X186400Y114000D02*
D03*
X173700D02*
D03*
X161000D02*
D03*
X148300D02*
D03*
X135600D02*
D03*
D21*
X19000Y100000D02*
D03*
Y68000D02*
D03*
D22*
X252000Y271000D02*
D03*
Y320000D02*
D03*
D23*
X461500Y284000D02*
D03*
X412500D02*
D03*
D24*
X193500Y423500D02*
D03*
Y442500D02*
D03*
X166500Y423500D02*
D03*
Y433000D02*
D03*
Y442500D02*
D03*
X230500Y144500D02*
D03*
Y163500D02*
D03*
X203500Y144500D02*
D03*
Y154000D02*
D03*
Y163500D02*
D03*
D25*
X67500Y281500D02*
D03*
X48500D02*
D03*
X67500Y254500D02*
D03*
X58000D02*
D03*
X48500D02*
D03*
X647500Y145500D02*
D03*
X666500D02*
D03*
X647500Y172500D02*
D03*
X657000D02*
D03*
X666500D02*
D03*
D26*
X597000Y373000D02*
D03*
X581000D02*
D03*
X252000Y421000D02*
D03*
X236000D02*
D03*
X252000Y396250D02*
D03*
X236000D02*
D03*
X252250Y381000D02*
D03*
X236250D02*
D03*
D27*
X48745Y214000D02*
D03*
Y207500D02*
D03*
Y201000D02*
D03*
Y194500D02*
D03*
Y188000D02*
D03*
D28*
X46495Y233000D02*
D03*
Y169000D02*
D03*
D29*
X21995Y189000D02*
D03*
Y213000D02*
D03*
X245750Y82500D02*
D03*
D30*
X182000Y258000D02*
D03*
X174000D02*
D03*
X166000D02*
D03*
X158000D02*
D03*
X150000D02*
D03*
X142000D02*
D03*
X134000D02*
D03*
X126000D02*
D03*
Y342000D02*
D03*
X134000D02*
D03*
X142000D02*
D03*
X150000D02*
D03*
X158000D02*
D03*
X166000D02*
D03*
X174000D02*
D03*
X182000D02*
D03*
D31*
X112000Y272000D02*
D03*
Y280000D02*
D03*
Y288000D02*
D03*
Y296000D02*
D03*
Y304000D02*
D03*
Y312000D02*
D03*
Y320000D02*
D03*
Y328000D02*
D03*
X196000D02*
D03*
Y320000D02*
D03*
Y312000D02*
D03*
Y304000D02*
D03*
Y296000D02*
D03*
Y288000D02*
D03*
Y280000D02*
D03*
Y272000D02*
D03*
D32*
X11500Y274250D02*
D03*
Y294250D02*
D03*
D33*
X606000Y245000D02*
D03*
X626000D02*
D03*
D34*
X70000Y228500D02*
D03*
Y213500D02*
D03*
X69750Y185250D02*
D03*
Y200250D02*
D03*
D35*
X221000Y240500D02*
D03*
Y221500D02*
D03*
X201000Y221500D02*
D03*
Y240500D02*
D03*
X220000Y322000D02*
D03*
Y303000D02*
D03*
X176000Y220500D02*
D03*
Y239500D02*
D03*
X22750Y451250D02*
D03*
Y432250D02*
D03*
X636000Y451500D02*
D03*
Y470500D02*
D03*
X114000Y130500D02*
D03*
Y111500D02*
D03*
X208000Y126500D02*
D03*
Y107500D02*
D03*
X304000Y66500D02*
D03*
Y47500D02*
D03*
X355000Y65500D02*
D03*
Y46500D02*
D03*
X213000Y421500D02*
D03*
Y440500D02*
D03*
X221000Y202500D02*
D03*
Y183500D02*
D03*
X647750Y188500D02*
D03*
Y207500D02*
D03*
X231000Y126500D02*
D03*
Y107500D02*
D03*
X199000Y184000D02*
D03*
Y203000D02*
D03*
X442000Y61500D02*
D03*
Y80500D02*
D03*
D36*
X262000Y348000D02*
D03*
X243000D02*
D03*
X260500Y243000D02*
D03*
X241500D02*
D03*
X403500Y49000D02*
D03*
X384500D02*
D03*
X39500Y521000D02*
D03*
X20500D02*
D03*
X461500Y78000D02*
D03*
X480500D02*
D03*
X445500Y230000D02*
D03*
X464500D02*
D03*
X263500Y485000D02*
D03*
X244500D02*
D03*
X403500Y78000D02*
D03*
X422500D02*
D03*
X403000Y100000D02*
D03*
X422000D02*
D03*
X459500D02*
D03*
X440500D02*
D03*
X407500Y253000D02*
D03*
X426500D02*
D03*
X465000D02*
D03*
X446000D02*
D03*
X667500Y127000D02*
D03*
X648500D02*
D03*
X72500Y303000D02*
D03*
X53500D02*
D03*
X107500Y241000D02*
D03*
X88500D02*
D03*
X597500Y331000D02*
D03*
X578500D02*
D03*
X460750Y56500D02*
D03*
X479750D02*
D03*
X149500Y237000D02*
D03*
X130500D02*
D03*
D66*
X601000Y261000D02*
D03*
Y306000D02*
D03*
X666000D02*
D03*
X245750Y17500D02*
D03*
X200750D02*
D03*
Y82500D02*
D03*
D67*
X666000Y261000D02*
D03*
D71*
X64624Y377056D02*
G03*
X64769Y376986I1381J2664D01*
G01*
X66999Y375916D02*
G03*
X66340Y376276I-2718J-4196D01*
G01*
X67708Y375457D02*
G03*
X67939Y375321I1631J2518D01*
G01*
X83637Y485156D02*
G03*
X82897Y485231I-11329J-107566D01*
G01*
D02*
G03*
X71827Y485750I-10590J-107641D01*
G01*
D72*
X84556Y484524D02*
D03*
D73*
X223000Y43000D02*
D03*
X669000Y20000D02*
D03*
X81250Y527000D02*
D03*
X669750Y517250D02*
D03*
D74*
X615000Y72000D02*
Y97309D01*
Y63000D02*
Y72000D01*
X648500Y127000D02*
Y128850D01*
X657250Y137600D01*
Y137650D02*
X665100Y145500D01*
X617560Y99887D02*
X648500Y127000D01*
X614991Y97318D02*
X617560Y99887D01*
X578000Y169000D02*
X593000Y184000D01*
X491321Y169000D02*
X578000D01*
X465051Y142730D02*
X491321Y169000D01*
X443998Y126878D02*
Y133290D01*
X453438Y142730D02*
X465051D01*
X443998Y133290D02*
X453438Y142730D01*
X442850Y125730D02*
X443998Y126878D01*
D75*
X657840Y232410D02*
X665790Y224460D01*
Y224172D02*
X666212Y223750D01*
X669500D01*
X639589Y232410D02*
X657840D01*
X634735Y227556D02*
X639589Y232410D01*
X665790Y224172D02*
Y224460D01*
X289750Y418250D02*
X293750D01*
X290000Y418500D02*
Y442000D01*
X161000Y114000D02*
Y123757D01*
X161124Y123881D02*
Y125474D01*
X166500Y130850D01*
X161000Y123757D02*
X161124Y123881D01*
X166500Y130850D02*
Y130850D01*
X175500Y239750D02*
X177500D01*
X187000Y230250D01*
X198000Y213000D02*
Y222000D01*
X186750Y179000D02*
Y179250D01*
X183500Y175750D02*
X186750Y179000D01*
X175000Y211000D02*
Y220250D01*
X175500Y220750D01*
X135600Y112500D02*
Y132524D01*
X135062Y133062D02*
X135600Y132524D01*
X76355Y185250D02*
X77500Y186395D01*
X69750Y185250D02*
X76355D01*
X461352Y42883D02*
Y58367D01*
X171000Y400500D02*
Y407750D01*
X43791Y287750D02*
X48500D01*
X42924Y286883D02*
X43791Y287750D01*
X578500Y331000D02*
Y352000D01*
X578500Y352000D01*
X669500Y209750D02*
Y223750D01*
X678250Y127000D02*
X680500Y129250D01*
X667500Y127000D02*
X678250D01*
X614991Y97318D02*
X615000Y97309D01*
X463000Y191974D02*
X468250Y197224D01*
X463000Y155000D02*
Y191974D01*
X468250Y197224D02*
Y201930D01*
X461500Y78000D02*
X463000Y79500D01*
Y85000D02*
X469000Y91000D01*
X463000Y79500D02*
Y85000D01*
X394750Y84750D02*
X396750D01*
X400000Y81500D01*
X402000D01*
X403500Y80000D01*
X640735Y186975D02*
X640760Y187000D01*
X646250D02*
X647750Y188500D01*
X640760Y187000D02*
X646250D01*
X629321Y186975D02*
X640735D01*
X626250Y227556D02*
X634735D01*
X84709Y303000D02*
X85459Y302250D01*
X72500Y303000D02*
X84709D01*
X85459Y302250D02*
X86000D01*
X231000Y482000D02*
X243500D01*
X225000Y476000D02*
X231000Y482000D01*
X243500D02*
X244500Y483000D01*
Y497500D01*
X57750Y451250D02*
X58000Y451000D01*
X22750Y451250D02*
X57750D01*
X185500Y288250D02*
X185500Y288250D01*
X191500D01*
X169000Y192000D02*
X177000Y200000D01*
X153437Y192000D02*
X169000D01*
X153436Y192000D02*
X153437Y192000D01*
X149500Y195936D02*
Y214000D01*
Y195936D02*
X153436Y192000D01*
X135062Y133062D02*
X162000Y160000D01*
X183500Y162929D02*
Y175750D01*
X180571Y160000D02*
X183500Y162929D01*
X162000Y160000D02*
X180571D01*
X174000Y241250D02*
X175500Y239750D01*
X148300Y114000D02*
Y122000D01*
X464500Y230000D02*
X466375Y228125D01*
Y203805D02*
Y228125D01*
Y203805D02*
X468250Y201930D01*
X442000Y48000D02*
Y61500D01*
X276000Y48500D02*
X288157D01*
X291250Y51593D01*
Y69250D01*
X221000Y183500D02*
X221000Y183500D01*
X87000Y260500D02*
X90000D01*
X30000Y294500D02*
X31500Y293000D01*
X29750Y294250D02*
X30000Y294500D01*
X48500Y269343D02*
Y281500D01*
X50843Y267000D02*
X80500D01*
X48500Y269343D02*
X50843Y267000D01*
X80500D02*
X87000Y260500D01*
X48500Y281500D02*
Y287750D01*
Y296000D02*
X53500Y301000D01*
Y303000D01*
X11500Y294250D02*
X29750D01*
X11375Y294125D02*
X11500Y294250D01*
X11375Y285125D02*
Y294125D01*
X11250Y285000D02*
X11375Y285125D01*
X48500Y287750D02*
Y296000D01*
X34383Y286883D02*
X42924D01*
X34000Y286500D02*
X34383Y286883D01*
X193500Y442500D02*
X194250Y441750D01*
X211750D01*
X213000Y440500D01*
X224500D01*
X233000D02*
X233500Y441000D01*
X224500Y440500D02*
X233000D01*
X20500Y506258D02*
Y521000D01*
Y506258D02*
X25400Y501358D01*
Y497840D02*
Y501358D01*
X461352Y58367D02*
X461617Y58633D01*
X461352Y42883D02*
X461735Y42500D01*
X465000Y253000D02*
X476500D01*
X444633Y229133D02*
X445500Y230000D01*
X444633Y219633D02*
Y229133D01*
X444250Y219250D02*
X444633Y219633D01*
X397500Y253000D02*
X407500D01*
X444250Y203330D02*
Y219250D01*
X442850Y201930D02*
X444250Y203330D01*
X263830Y485330D02*
Y507670D01*
X264160Y508000D01*
X263500Y485000D02*
X263830Y485330D01*
X211000Y421500D02*
X213000D01*
X262250Y348250D02*
X272750D01*
X262000Y348000D02*
X262250Y348250D01*
X262500Y245000D02*
X271750D01*
X260500Y243000D02*
X262500Y245000D01*
X234709Y203500D02*
X235250D01*
X220000Y322000D02*
Y333500D01*
X221000Y240500D02*
Y252000D01*
X233709Y202500D02*
X234709Y203500D01*
X221000Y202500D02*
X233709D01*
X630291Y176250D02*
X634041Y172500D01*
X647500D01*
X629750Y176250D02*
X630291D01*
X458000Y101500D02*
X459500Y100000D01*
X458000Y101500D02*
Y111250D01*
X401883Y101117D02*
X403000Y100000D01*
X401500Y111250D02*
X401883Y110867D01*
Y101117D02*
Y110867D01*
X231000Y126500D02*
Y136750D01*
X304000Y66500D02*
Y83000D01*
X403500Y78000D02*
Y80000D01*
X355000Y65500D02*
X355000Y65500D01*
X370250D01*
X203302Y428207D02*
X204293D01*
X211000Y421500D01*
X202919Y428589D02*
X203302Y428207D01*
X190500Y410000D02*
X190750D01*
X177000Y423500D02*
X190500Y410000D01*
X166500Y423500D02*
X177000D01*
X150000Y258000D02*
Y272250D01*
X150000Y258000D02*
X150000Y258000D01*
X149500Y235000D02*
Y237000D01*
X107000Y255000D02*
X107250Y254750D01*
Y241250D02*
X107500Y241000D01*
X141250Y226750D02*
X149500Y235000D01*
X39750Y520750D02*
X58500D01*
X39500Y521000D02*
X39750Y520750D01*
X107250Y241250D02*
Y254750D01*
X78125Y228625D02*
X78250Y228750D01*
X67500Y254500D02*
X75500D01*
X70000Y228500D02*
X70125Y228625D01*
X78125D01*
X141250Y226250D02*
Y226750D01*
X192500Y144500D02*
X203500D01*
X205750Y128750D02*
X208000Y126500D01*
X205750Y128750D02*
Y135750D01*
X441675Y101175D02*
Y124555D01*
X174000Y241250D02*
Y258000D01*
X239000Y503000D02*
X244500Y497500D01*
X239000Y503000D02*
Y507760D01*
X238760Y508000D02*
X239000Y507760D01*
X440500Y100000D02*
X441675Y101175D01*
D76*
X154922Y132000D02*
X162772Y139851D01*
X171983Y148983D02*
X182282D01*
X162850Y139851D02*
X171983Y148983D01*
X152000Y132000D02*
X154922D01*
X162772Y139851D02*
X162850D01*
X182282Y148983D02*
X192500Y159201D01*
Y168735D02*
X197397Y173632D01*
Y183500D02*
X221000D01*
X197397Y173632D02*
Y183500D01*
X192500Y159201D02*
Y168735D01*
X606000Y245000D02*
X607235D01*
X595000D02*
X606000D01*
X624679Y227556D02*
X626250D01*
X578500Y296015D02*
X596024Y278491D01*
X578500Y261500D02*
Y296015D01*
Y261500D02*
X595000Y245000D01*
X607235D02*
X624679Y227556D01*
X578500Y296015D02*
Y331000D01*
X596024Y278491D02*
X675994D01*
X682000Y158442D02*
Y272485D01*
X670058Y146500D02*
X682000Y158442D01*
X666500Y145500D02*
X667500Y146500D01*
X675994Y278491D02*
X682000Y272485D01*
X667500Y146500D02*
X670058D01*
X665100Y145500D02*
X666500D01*
D77*
X662000Y469000D02*
D03*
X146000Y446000D02*
D03*
D78*
X662000Y418200D02*
D03*
Y443600D02*
D03*
X146000Y420600D02*
D03*
Y369800D02*
D03*
Y395200D02*
D03*
D79*
X134750Y515750D02*
D03*
D80*
X391160Y508000D02*
D03*
X187960D02*
D03*
X213360D02*
D03*
X238760D02*
D03*
X264160D02*
D03*
X289560D02*
D03*
X314960D02*
D03*
X340360D02*
D03*
X365760D02*
D03*
X304800Y25400D02*
D03*
X457200D02*
D03*
X431800D02*
D03*
X406400D02*
D03*
X381000D02*
D03*
X355600D02*
D03*
X330200D02*
D03*
X609600Y508000D02*
D03*
X457200D02*
D03*
X482600D02*
D03*
X508000D02*
D03*
X533400D02*
D03*
X558800D02*
D03*
X584200D02*
D03*
X533400Y25400D02*
D03*
X635000D02*
D03*
X609600D02*
D03*
X584200D02*
D03*
X558800D02*
D03*
X141600Y88000D02*
D03*
X167000D02*
D03*
X290450Y125730D02*
D03*
X315850D02*
D03*
X341250D02*
D03*
X366650D02*
D03*
X392050D02*
D03*
X417450D02*
D03*
X442850D02*
D03*
X468250D02*
D03*
X493650D02*
D03*
X519050D02*
D03*
X544450D02*
D03*
X569850D02*
D03*
X595250D02*
D03*
X620650D02*
D03*
X290450Y201930D02*
D03*
X315850D02*
D03*
X341250D02*
D03*
X366650D02*
D03*
X392050D02*
D03*
X417450D02*
D03*
X442850D02*
D03*
X468250D02*
D03*
X493650D02*
D03*
X519050D02*
D03*
X544450D02*
D03*
X569850D02*
D03*
X595250D02*
D03*
D81*
X416560Y508000D02*
D03*
X279400Y25400D02*
D03*
X635000Y508000D02*
D03*
X508000Y25400D02*
D03*
X116200Y88000D02*
D03*
X620650Y201930D02*
D03*
D82*
X21000Y27000D02*
D03*
X22000Y138000D02*
D03*
D83*
X139700Y25400D02*
D03*
X660400Y76200D02*
D03*
Y355600D02*
D03*
D84*
X76200Y497840D02*
D03*
X50800D02*
D03*
X25400D02*
D03*
X76200Y472440D02*
D03*
X50800D02*
D03*
X76200Y411480D02*
D03*
X50800D02*
D03*
X25400D02*
D03*
X76200Y386080D02*
D03*
X50800D02*
D03*
X28350Y351750D02*
D03*
X53750Y326350D02*
D03*
X28350D02*
D03*
D85*
X25400Y472440D02*
D03*
Y386080D02*
D03*
X53750Y351750D02*
D03*
D86*
X21995Y234000D02*
D03*
Y168000D02*
D03*
D87*
X306750Y419000D02*
D03*
X300250Y429750D02*
D03*
X293750Y418250D02*
D03*
X152000Y132000D02*
D03*
X198000Y213000D02*
D03*
X175000Y211000D02*
D03*
X107000Y159000D02*
D03*
X100000D02*
D03*
X107000Y153000D02*
D03*
X114000Y159000D02*
D03*
X133000Y174000D02*
D03*
X140000Y167000D02*
D03*
Y175000D02*
D03*
Y183000D02*
D03*
X385000Y393000D02*
D03*
X376000D02*
D03*
X385000Y401000D02*
D03*
X384000Y486000D02*
D03*
X374000D02*
D03*
X384000Y493000D02*
D03*
X375000Y401000D02*
D03*
X570000Y387000D02*
D03*
Y394000D02*
D03*
X615000Y72000D02*
D03*
Y63000D02*
D03*
X463000Y155000D02*
D03*
X469000Y91000D02*
D03*
X404000Y64000D02*
D03*
X411000D02*
D03*
X317603Y57226D02*
D03*
X310601Y232337D02*
D03*
X117000Y405000D02*
D03*
Y413000D02*
D03*
X124250Y406750D02*
D03*
X225000Y476000D02*
D03*
X58000Y451000D02*
D03*
X165000Y206000D02*
D03*
X158000Y200000D02*
D03*
X177000D02*
D03*
X209500Y212000D02*
D03*
X576000Y409000D02*
D03*
X593000Y184000D02*
D03*
X480750Y96000D02*
D03*
X374000Y493000D02*
D03*
X318000Y64000D02*
D03*
X461617Y58633D02*
D03*
X442000Y48000D02*
D03*
X291250Y69250D02*
D03*
X11250Y285000D02*
D03*
X34000Y286500D02*
D03*
X171000Y407750D02*
D03*
X224500Y440500D02*
D03*
X461735Y42500D02*
D03*
X58500Y228750D02*
D03*
X77500Y186395D02*
D03*
X118250Y195750D02*
D03*
X570000Y400000D02*
D03*
X476500Y253000D02*
D03*
X397500D02*
D03*
X444250Y219250D02*
D03*
X272750Y348250D02*
D03*
X271750Y245000D02*
D03*
X235250Y203500D02*
D03*
X221000Y252000D02*
D03*
X220000Y333500D02*
D03*
X680500Y129250D02*
D03*
X629321Y186975D02*
D03*
X629750Y176250D02*
D03*
X458000Y111250D02*
D03*
X401500D02*
D03*
X394750Y84750D02*
D03*
X231000Y136750D02*
D03*
X304000Y83000D02*
D03*
X420000Y64000D02*
D03*
X370250Y65500D02*
D03*
X202919Y428589D02*
D03*
X190750Y410000D02*
D03*
X185500Y288250D02*
D03*
X150000Y272250D02*
D03*
X107000Y255000D02*
D03*
X58500Y520750D02*
D03*
X86000Y302250D02*
D03*
X78250Y228750D02*
D03*
X75500Y254500D02*
D03*
X192500Y144500D02*
D03*
X141250Y226250D02*
D03*
X205750Y135750D02*
D03*
X166500Y130850D02*
D03*
X575750Y418000D02*
D03*
X94679Y320000D02*
D03*
X94250Y379580D02*
D03*
X100000Y272500D02*
D03*
X105250Y369500D02*
D03*
X251000Y196250D02*
D03*
X57750Y219250D02*
D03*
X86000Y108500D02*
D03*
Y117500D02*
D03*
X114500Y218000D02*
D03*
X285000Y485500D02*
D03*
X218000Y398250D02*
D03*
X562605Y421031D02*
D03*
X574000Y428000D02*
D03*
X665000Y163000D02*
D03*
X621500Y451250D02*
D03*
X300750Y162500D02*
D03*
X287250Y222750D02*
D03*
X286750Y181930D02*
D03*
M02*
