G04*
G04 #@! TF.GenerationSoftware,Altium Limited,Altium Designer,26.3.0 (6)*
G04*
G04 Layer_Physical_Order=2*
G04 Layer_Color=16711680*
%FSLAX44Y44*%
%MOMM*%
G71*
G04*
G04 #@! TF.SameCoordinates,42E91EB3-116B-40EE-AB62-CD4AD7042EDC*
G04*
G04*
G04 #@! TF.FilePolarity,Positive*
G04*
G01*
G75*
%ADD10C,0.2000*%
%ADD11C,0.5000*%
%ADD29R,1.9000X1.9000*%
%ADD66C,1.9000*%
%ADD67R,1.9000X1.9000*%
%ADD71C,0.3000*%
%ADD74C,1.0000*%
%ADD75C,0.6000*%
%ADD77R,2.0000X1.6000*%
%ADD78O,2.0000X1.6000*%
%ADD79C,3.2000*%
%ADD80O,1.6000X2.0000*%
%ADD81R,1.6000X2.0000*%
%ADD82C,4.0000*%
%ADD83C,7.4000*%
%ADD84C,1.7000*%
%ADD85R,1.7000X1.7000*%
G04:AMPARAMS|DCode=86|XSize=2mm|YSize=1.2mm|CornerRadius=0.3mm|HoleSize=0mm|Usage=FLASHONLY|Rotation=0.000|XOffset=0mm|YOffset=0mm|HoleType=Round|Shape=RoundedRectangle|*
%AMROUNDEDRECTD86*
21,1,2.0000,0.6000,0,0,0.0*
21,1,1.4000,1.2000,0,0,0.0*
1,1,0.6000,0.7000,-0.3000*
1,1,0.6000,-0.7000,-0.3000*
1,1,0.6000,-0.7000,0.3000*
1,1,0.6000,0.7000,0.3000*
%
%ADD86ROUNDEDRECTD86*%
%ADD87C,0.6000*%
G36*
X683000Y492000D02*
X674000Y483000D01*
X600394D01*
X600000Y483078D01*
X600000Y483078D01*
X299465D01*
X298979Y484252D01*
X310619Y495892D01*
X312088Y495283D01*
X314960Y494905D01*
X317832Y495283D01*
X320507Y496391D01*
X322805Y498155D01*
X324568Y500452D01*
X325677Y503128D01*
X326055Y506000D01*
Y510000D01*
X325677Y512872D01*
X324568Y515547D01*
X322805Y517845D01*
X320507Y519608D01*
X317832Y520717D01*
X314960Y521095D01*
X312088Y520717D01*
X309413Y519608D01*
X307115Y517845D01*
X305352Y515547D01*
X304243Y512872D01*
X303865Y510000D01*
Y506000D01*
X304243Y503128D01*
X304852Y501659D01*
X292771Y489578D01*
X289407D01*
X288399Y490587D01*
X286194Y491500D01*
X283806D01*
X281601Y490587D01*
X279943Y488928D01*
X279665Y488691D01*
X278596Y488479D01*
X278192Y488884D01*
X276868Y489768D01*
X275308Y490078D01*
X275308Y490078D01*
X260689D01*
X256078Y494689D01*
Y515000D01*
X256078Y515000D01*
X256000Y515394D01*
Y530000D01*
X256414Y531000D01*
X683000D01*
Y492000D01*
D02*
G37*
G36*
X106466Y530807D02*
X107538Y450982D01*
X106646Y450078D01*
X104329D01*
X86730Y467678D01*
X86916Y468001D01*
X87700Y470926D01*
Y473954D01*
X86916Y476879D01*
X85402Y479501D01*
X83261Y481642D01*
X80639Y483156D01*
X77714Y483940D01*
X74686D01*
X71761Y483156D01*
X69139Y481642D01*
X66998Y479501D01*
X65484Y476879D01*
X64700Y473954D01*
Y470926D01*
X65484Y468001D01*
X66998Y465379D01*
X69139Y463238D01*
X71761Y461724D01*
X74686Y460940D01*
X77714D01*
X80639Y461724D01*
X80962Y461910D01*
X99756Y443116D01*
X99756Y443116D01*
X101079Y442232D01*
X102640Y441922D01*
X102640Y441922D01*
X107660D01*
X107941Y420933D01*
Y382000D01*
X108174Y380829D01*
X108486Y380363D01*
X108533Y376806D01*
X111883D01*
X112829Y376174D01*
X114000Y375941D01*
X114000Y375941D01*
X133326D01*
X134111Y374671D01*
X133283Y372672D01*
X132905Y369800D01*
X133283Y366928D01*
X134391Y364253D01*
X136155Y361955D01*
X138453Y360191D01*
X141128Y359083D01*
X144000Y358705D01*
X148000D01*
X150872Y359083D01*
X153547Y360191D01*
X155845Y361955D01*
X157608Y364253D01*
X158717Y366928D01*
X159095Y369800D01*
X158717Y372672D01*
X157889Y374671D01*
X158674Y375941D01*
X183000D01*
X183000Y375941D01*
X184170Y376174D01*
X184747Y376559D01*
X185500Y375807D01*
X187500Y377807D01*
Y379174D01*
X190163Y381837D01*
X190826Y382829D01*
X191059Y384000D01*
X190826Y385171D01*
X190163Y386163D01*
X190163Y386163D01*
X190059Y386267D01*
Y405265D01*
X190059Y405265D01*
X189826Y406435D01*
X189163Y407428D01*
X188256Y408334D01*
X187809Y409415D01*
Y410585D01*
X188256Y411666D01*
X189163Y412572D01*
X189826Y413565D01*
X189901Y413941D01*
X190000D01*
X191171Y414174D01*
X192163Y414837D01*
X200174Y422849D01*
X200837Y423841D01*
X201070Y425011D01*
X200837Y426182D01*
X200561Y426595D01*
X199978Y428004D01*
Y429174D01*
X200425Y430256D01*
X201163Y430993D01*
X201796Y431941D01*
X205733D01*
X206941Y430733D01*
Y402000D01*
X207174Y400830D01*
X207837Y399837D01*
X208829Y399174D01*
X209208Y399099D01*
X212530Y395776D01*
X212913Y394851D01*
X214601Y393163D01*
X215526Y392780D01*
X218500Y389807D01*
X231500Y402807D01*
X365500D01*
X367500Y400807D01*
X371041Y404348D01*
X572167D01*
X572601Y403913D01*
X574500Y403127D01*
Y396000D01*
Y384000D01*
X559500D01*
Y207687D01*
X559133Y206802D01*
X558755Y203930D01*
Y199930D01*
X559133Y197058D01*
X559500Y196173D01*
Y189000D01*
X568597D01*
X569850Y188835D01*
X571103Y189000D01*
X577962D01*
X592500Y175807D01*
X595047Y178354D01*
X596399Y178913D01*
X598087Y180601D01*
X598647Y181953D01*
X607000Y190306D01*
X609650D01*
Y188930D01*
X630791D01*
X631743Y187978D01*
Y179371D01*
X631743Y179371D01*
X632053Y177811D01*
X632172Y177633D01*
Y175247D01*
X630116Y173192D01*
X629232Y171868D01*
X628922Y170308D01*
X628922Y170308D01*
Y155939D01*
X628789Y155807D01*
X597500D01*
X586500Y144806D01*
Y134396D01*
X585642Y133278D01*
X584533Y130602D01*
X584155Y127730D01*
Y123730D01*
X584533Y120858D01*
X585642Y118182D01*
X586500Y117064D01*
Y111806D01*
X630500D01*
Y118766D01*
X631367Y120858D01*
X631745Y123730D01*
Y127730D01*
X631367Y130602D01*
X631053Y131360D01*
X637500Y137807D01*
X684500D01*
Y109532D01*
X683368Y108955D01*
X681365Y110411D01*
X675755Y113270D01*
X669767Y115215D01*
X663548Y116200D01*
X657252D01*
X651033Y115215D01*
X645045Y113270D01*
X639435Y110411D01*
X634342Y106710D01*
X629890Y102258D01*
X626189Y97165D01*
X623330Y91555D01*
X621385Y85567D01*
X620400Y79348D01*
Y79059D01*
X487000D01*
X485830Y78826D01*
X484837Y78163D01*
X484837Y78163D01*
X472481Y65806D01*
X471200D01*
X471171Y65826D01*
X470000Y66059D01*
X470000Y66059D01*
X445000D01*
X445000Y66059D01*
X443829Y65826D01*
X442837Y65163D01*
X437733Y60059D01*
X410136D01*
X373557Y63310D01*
X373421Y63295D01*
X373287Y63322D01*
X372832Y63232D01*
X372371Y63182D01*
X372251Y63116D01*
X372116Y63089D01*
X370835Y62559D01*
X369665D01*
X368584Y63007D01*
X368551Y63039D01*
X368166Y63297D01*
X367804Y63588D01*
X367673Y63626D01*
X367559Y63703D01*
X367457Y63723D01*
X367163Y64163D01*
X367163Y64163D01*
X353500Y77826D01*
Y78807D01*
X352519D01*
X350163Y81163D01*
X349170Y81826D01*
X348000Y82059D01*
X348000Y82059D01*
X308485D01*
X308485Y82059D01*
X307315Y81826D01*
X306322Y81163D01*
X306322Y81163D01*
X305666Y80506D01*
X304585Y80059D01*
X303415D01*
X302334Y80506D01*
X301678Y81163D01*
X300685Y81826D01*
X299515Y82059D01*
X299515Y82059D01*
X296267D01*
X245163Y133163D01*
X244170Y133826D01*
X243000Y134059D01*
X243000Y134059D01*
X232797D01*
X231626Y133826D01*
X231585Y133809D01*
X230415D01*
X230373Y133826D01*
X229203Y134059D01*
X209485D01*
X208315Y133826D01*
X207538Y133307D01*
X206335Y132809D01*
X205165D01*
X203962Y133307D01*
X203185Y133826D01*
X202015Y134059D01*
X202015Y134059D01*
X186000D01*
X186000Y134059D01*
X184829Y133826D01*
X183837Y133163D01*
X179733Y129059D01*
X172900D01*
X172500Y129657D01*
Y132044D01*
X171587Y134249D01*
X169899Y135937D01*
X167694Y136851D01*
X165306D01*
X163101Y135937D01*
X162143Y134979D01*
X160417Y134909D01*
X155163Y140163D01*
X154171Y140826D01*
X153000Y141059D01*
X153000Y141059D01*
X93000D01*
X91830Y140826D01*
X91800Y140807D01*
X89059D01*
Y179000D01*
X88826Y180170D01*
X88163Y181163D01*
X87170Y181826D01*
X86000Y182059D01*
X78016D01*
X77691Y182533D01*
X77370Y183013D01*
X77354Y183024D01*
X77343Y183040D01*
X76858Y183355D01*
X76377Y183676D01*
X75834Y183902D01*
X75006Y184729D01*
X75000Y184745D01*
Y188045D01*
X75006Y188061D01*
X75163Y188218D01*
X75826Y189210D01*
X76059Y190380D01*
X76059Y190380D01*
Y225746D01*
X75826Y226916D01*
X75500Y227703D01*
Y229797D01*
X75826Y230584D01*
X76059Y231754D01*
Y234000D01*
X75826Y235170D01*
X75163Y236163D01*
X74170Y236826D01*
X73000Y237059D01*
X56500D01*
Y241807D01*
X54059D01*
Y314850D01*
X55264D01*
X58189Y315634D01*
X60811Y317148D01*
X62952Y319289D01*
X64466Y321911D01*
X65250Y324836D01*
Y327864D01*
X64466Y330789D01*
X62952Y333411D01*
X60811Y335552D01*
X58189Y337066D01*
X55264Y337850D01*
X54059D01*
Y340250D01*
X65250D01*
Y363250D01*
X54059D01*
Y374580D01*
X53970Y375024D01*
X55239Y375364D01*
X57861Y376878D01*
X60002Y379019D01*
X61516Y381641D01*
X62300Y384566D01*
Y387594D01*
X61516Y390519D01*
X60002Y393141D01*
X57861Y395282D01*
X55239Y396796D01*
X53970Y397136D01*
X54059Y397580D01*
Y399980D01*
X53970Y400424D01*
X55239Y400764D01*
X57861Y402278D01*
X60002Y404419D01*
X61516Y407041D01*
X62300Y409966D01*
Y412994D01*
X61516Y415919D01*
X60002Y418541D01*
X57861Y420682D01*
X55239Y422196D01*
X53970Y422536D01*
X54059Y422980D01*
Y444797D01*
X55329Y445612D01*
X56807Y445000D01*
X59194D01*
X61399Y445914D01*
X63087Y447601D01*
X64000Y449807D01*
Y452193D01*
X63087Y454399D01*
X61399Y456087D01*
X59194Y457000D01*
X56807D01*
X55329Y456388D01*
X54059Y457203D01*
Y460940D01*
X53970Y461384D01*
X55239Y461724D01*
X57861Y463238D01*
X60002Y465379D01*
X61516Y468001D01*
X62300Y470926D01*
Y473954D01*
X61516Y476879D01*
X60002Y479501D01*
X57861Y481642D01*
X55239Y483156D01*
X53970Y483496D01*
X54059Y483940D01*
Y486340D01*
X53970Y486784D01*
X55239Y487124D01*
X57861Y488638D01*
X60002Y490779D01*
X61516Y493401D01*
X62300Y496326D01*
Y499354D01*
X61516Y502279D01*
X60002Y504901D01*
X57861Y507042D01*
X55239Y508556D01*
X52314Y509340D01*
X50014D01*
X49875Y510399D01*
X49746Y510778D01*
X49668Y511171D01*
X49556Y511338D01*
X49491Y511529D01*
X49227Y511830D01*
X49005Y512163D01*
X48837Y512275D01*
X48704Y512427D01*
X48345Y512604D01*
X48013Y512826D01*
X47815Y512865D01*
X47634Y512954D01*
X47235Y512981D01*
X46842Y513059D01*
X2500D01*
Y530807D01*
X106466Y530807D01*
D02*
G37*
G36*
X294250Y428750D02*
Y428557D01*
X295163Y426351D01*
X296851Y424663D01*
X299056Y423750D01*
X299250D01*
X300000Y423000D01*
Y413000D01*
X226000D01*
X217250Y404250D01*
X216807D01*
X214601Y403337D01*
X213265Y402000D01*
X210000D01*
Y432000D01*
X207000Y435000D01*
X199000D01*
Y433156D01*
X197832Y431988D01*
X196919Y429783D01*
Y427396D01*
X197832Y425191D01*
X198011Y425011D01*
X190000Y417000D01*
X187000D01*
Y414735D01*
X185664Y413399D01*
X184750Y411194D01*
Y408806D01*
X185664Y406601D01*
X187000Y405265D01*
Y385000D01*
X188000Y384000D01*
X183000Y379000D01*
X154080D01*
X153547Y379408D01*
X150872Y380517D01*
X148000Y380895D01*
X144000D01*
X141128Y380517D01*
X138453Y379408D01*
X137920Y379000D01*
X114000D01*
X111000Y382000D01*
Y435000D01*
X160000D01*
Y447000D01*
X274000D01*
X275000Y448000D01*
X294250Y428750D01*
D02*
G37*
G36*
X47010Y508730D02*
X46361Y508556D01*
X43739Y507042D01*
X41598Y504901D01*
X40084Y502279D01*
X39300Y499354D01*
Y496326D01*
X40084Y493401D01*
X41598Y490779D01*
X43739Y488638D01*
X46361Y487124D01*
X49286Y486340D01*
X51000D01*
Y483940D01*
X49286D01*
X46361Y483156D01*
X43739Y481642D01*
X41598Y479501D01*
X40084Y476879D01*
X39300Y473954D01*
Y470926D01*
X40084Y468001D01*
X41598Y465379D01*
X43739Y463238D01*
X46361Y461724D01*
X49286Y460940D01*
X51000D01*
Y422980D01*
X49286D01*
X46361Y422196D01*
X43739Y420682D01*
X41598Y418541D01*
X40084Y415919D01*
X39300Y412994D01*
Y409966D01*
X40084Y407041D01*
X41598Y404419D01*
X43739Y402278D01*
X46361Y400764D01*
X49286Y399980D01*
X51000D01*
Y397580D01*
X49286D01*
X46361Y396796D01*
X43739Y395282D01*
X41598Y393141D01*
X40084Y390519D01*
X39300Y387594D01*
Y384566D01*
X40084Y381641D01*
X41598Y379019D01*
X43739Y376878D01*
X46361Y375364D01*
X49286Y374580D01*
X51000D01*
Y363250D01*
X42250D01*
Y340250D01*
X51000D01*
Y337519D01*
X49311Y337066D01*
X46689Y335552D01*
X44548Y333411D01*
X43034Y330789D01*
X42250Y327864D01*
Y324836D01*
X43034Y321911D01*
X44548Y319289D01*
X46689Y317148D01*
X49311Y315634D01*
X51000Y315181D01*
Y234296D01*
X50941Y234000D01*
Y191000D01*
X51000Y190704D01*
Y189000D01*
X66000Y174000D01*
Y132000D01*
X67181Y130819D01*
X67837Y129837D01*
X67837Y129837D01*
X79941Y117733D01*
Y105000D01*
X80174Y103829D01*
X80837Y102837D01*
X81830Y102174D01*
X83000Y101941D01*
X90000D01*
X91171Y102174D01*
X92163Y102837D01*
X92272Y103000D01*
X93000D01*
Y104705D01*
X93059Y105000D01*
Y123000D01*
X93000Y123295D01*
Y138000D01*
X153000D01*
X160500Y130500D01*
Y129657D01*
X161413Y127452D01*
X163101Y125764D01*
X165306Y124851D01*
X167694D01*
X169899Y125764D01*
X170135Y126000D01*
X181000D01*
X186000Y131000D01*
X202015D01*
X202351Y130663D01*
X204557Y129750D01*
X206943D01*
X209149Y130663D01*
X209485Y131000D01*
X229203D01*
X229806Y130750D01*
X232194D01*
X232797Y131000D01*
X243000D01*
X295000Y79000D01*
X299515D01*
X300601Y77913D01*
X302806Y77000D01*
X305194D01*
X307399Y77913D01*
X308485Y79000D01*
X348000D01*
X365000Y62000D01*
Y61000D01*
X366388Y60877D01*
X366851Y60413D01*
X369057Y59500D01*
X371443D01*
X373287Y60263D01*
X410000Y57000D01*
X439000D01*
X445000Y63000D01*
X470000D01*
X472000Y61000D01*
X487000Y76000D01*
X620400D01*
Y73052D01*
X621385Y66833D01*
X623000Y61863D01*
Y11000D01*
X628000Y6000D01*
X626000Y4000D01*
X398000D01*
Y14380D01*
X399270Y15006D01*
X400853Y13792D01*
X403528Y12683D01*
X406400Y12305D01*
X409272Y12683D01*
X411947Y13792D01*
X414245Y15555D01*
X416008Y17852D01*
X417117Y20528D01*
X417495Y23400D01*
Y27400D01*
X417117Y30272D01*
X416008Y32947D01*
X414245Y35245D01*
X411947Y37009D01*
X409272Y38117D01*
X406400Y38495D01*
X403528Y38117D01*
X400853Y37009D01*
X399270Y35794D01*
X398000Y36421D01*
Y40000D01*
X392769D01*
X392606Y40163D01*
X391614Y40826D01*
X390443Y41059D01*
X390443Y41059D01*
X374941D01*
X367059Y48941D01*
Y50000D01*
X366826Y51171D01*
X366163Y52163D01*
X365171Y52826D01*
X364000Y53059D01*
X362941D01*
X362000Y54000D01*
X274326D01*
X258250Y70076D01*
Y95000D01*
X233250D01*
Y94000D01*
X227000D01*
X216000Y105000D01*
X215282D01*
X214421Y105576D01*
X213250Y105809D01*
X213250Y105809D01*
X159000D01*
X157830Y105576D01*
X156967Y105000D01*
X151000D01*
X150000Y104000D01*
Y80059D01*
X147940D01*
X147548Y79981D01*
X147149Y79955D01*
X146968Y79865D01*
X146770Y79826D01*
X146437Y79604D01*
X146078Y79427D01*
X145605Y79063D01*
X143673Y78263D01*
X141674Y78000D01*
X141526D01*
X139527Y78263D01*
X137595Y79063D01*
X137122Y79427D01*
X136763Y79604D01*
X136430Y79826D01*
X136232Y79865D01*
X136051Y79955D01*
X135652Y79981D01*
X135260Y80059D01*
X132000D01*
Y101000D01*
X127416D01*
X127221Y101142D01*
X127005Y101243D01*
X126819Y101391D01*
X126469Y101491D01*
X126138Y101644D01*
X125900Y101654D01*
X125671Y101720D01*
X125310Y101679D01*
X124946Y101694D01*
X124722Y101612D01*
X124486Y101585D01*
X122657Y101000D01*
X105200D01*
Y97667D01*
X95636Y92353D01*
X44420Y75965D01*
X3013Y64286D01*
X2000Y65052D01*
Y74000D01*
Y124346D01*
X3215Y124714D01*
X4135Y123338D01*
X7338Y120135D01*
X11105Y117618D01*
X15291Y115884D01*
X19735Y115000D01*
X24265D01*
X28709Y115884D01*
X32895Y117618D01*
X36662Y120135D01*
X39865Y123338D01*
X42382Y127105D01*
X44116Y131291D01*
X45000Y135735D01*
Y140265D01*
X44116Y144709D01*
X42382Y148895D01*
X39865Y152662D01*
X36662Y155865D01*
X32895Y158382D01*
X32451Y158566D01*
X32310Y159999D01*
X33321Y160674D01*
X34647Y162659D01*
X35113Y165000D01*
Y171000D01*
X34647Y173341D01*
X33321Y175326D01*
X31336Y176652D01*
X28995Y177118D01*
X14995D01*
X12654Y176652D01*
X10669Y175326D01*
X9343Y173341D01*
X8878Y171000D01*
Y165000D01*
X9343Y162659D01*
X10669Y160674D01*
X11684Y159997D01*
X11543Y158563D01*
X11105Y158382D01*
X7338Y155865D01*
X4135Y152662D01*
X3215Y151286D01*
X2000Y151654D01*
Y510000D01*
X46842D01*
X47010Y508730D01*
D02*
G37*
G36*
X73000Y231754D02*
X72250Y229944D01*
Y227556D01*
X73000Y225746D01*
Y190380D01*
X72413Y189794D01*
X71500Y187589D01*
Y185202D01*
X72413Y182996D01*
X74101Y181309D01*
X75207Y180851D01*
X76000Y179000D01*
X86000D01*
Y127000D01*
X90000Y123000D01*
Y105000D01*
X83000D01*
Y119000D01*
X70000Y132000D01*
Y175000D01*
X54000Y191000D01*
Y234000D01*
X73000D01*
Y231754D01*
D02*
G37*
G36*
X233250Y82750D02*
Y70000D01*
X254000D01*
X274000Y50000D01*
X364000D01*
Y17059D01*
X361419D01*
X361027Y16981D01*
X360628Y16954D01*
X360447Y16865D01*
X360249Y16826D01*
X359916Y16604D01*
X359771Y16532D01*
X357673Y15663D01*
X355600Y15390D01*
X353527Y15663D01*
X351429Y16532D01*
X351284Y16604D01*
X350951Y16826D01*
X350753Y16865D01*
X350573Y16954D01*
X350173Y16981D01*
X349781Y17059D01*
X347000D01*
Y27000D01*
X341295D01*
Y27400D01*
X340917Y30272D01*
X339809Y32947D01*
X338045Y35245D01*
X335747Y37009D01*
X333072Y38117D01*
X330200Y38495D01*
X327328Y38117D01*
X324653Y37009D01*
X322355Y35245D01*
X320592Y32947D01*
X319483Y30272D01*
X319105Y27400D01*
Y27000D01*
X315895D01*
Y27400D01*
X315517Y30272D01*
X314408Y32947D01*
X312645Y35245D01*
X310347Y37009D01*
X307672Y38117D01*
X304800Y38495D01*
X301928Y38117D01*
X299253Y37009D01*
X296955Y35245D01*
X295191Y32947D01*
X294083Y30272D01*
X293705Y27400D01*
Y27000D01*
X290400D01*
Y38400D01*
X270443D01*
X270366Y38683D01*
X270269Y39170D01*
X270212Y39256D01*
X270185Y39356D01*
X269883Y39750D01*
X269606Y40163D01*
X269521Y40220D01*
X269458Y40302D01*
X261458Y47302D01*
X261027Y47550D01*
X260614Y47826D01*
X260513Y47846D01*
X260424Y47898D01*
X259931Y47962D01*
X259443Y48059D01*
X224711D01*
X223606Y49163D01*
X223606Y49163D01*
X203588Y69181D01*
X203917Y70408D01*
X205575Y70852D01*
X208425Y72498D01*
X210753Y74825D01*
X212398Y77675D01*
X213250Y80854D01*
Y84146D01*
X212398Y87325D01*
X210753Y90175D01*
X208425Y92502D01*
X205575Y94148D01*
X202396Y95000D01*
X199104D01*
X195925Y94148D01*
X193075Y92502D01*
X190748Y90175D01*
X189102Y87325D01*
X188250Y84146D01*
Y80854D01*
X187640Y80059D01*
X173340D01*
X172948Y79981D01*
X172549Y79955D01*
X172368Y79865D01*
X172170Y79826D01*
X171837Y79604D01*
X171478Y79427D01*
X171005Y79063D01*
X169073Y78263D01*
X167074Y78000D01*
X166926D01*
X164927Y78263D01*
X162995Y79063D01*
X162522Y79427D01*
X162163Y79604D01*
X161830Y79826D01*
X161632Y79865D01*
X161451Y79955D01*
X161052Y79981D01*
X160660Y80059D01*
X159000D01*
Y102750D01*
X213250D01*
X233250Y82750D01*
D02*
G37*
G36*
X629890Y50142D02*
X634342Y45690D01*
X639435Y41989D01*
X645045Y39130D01*
X651033Y37185D01*
X657252Y36200D01*
X663548D01*
X669767Y37185D01*
X675755Y39130D01*
X681365Y41989D01*
X683368Y43445D01*
X684500Y42868D01*
Y5806D01*
X682500Y3807D01*
X631670D01*
X631340Y4207D01*
X630875Y5077D01*
X631059Y6000D01*
X630826Y7171D01*
X630163Y8163D01*
X626500Y11826D01*
Y14456D01*
X627770Y15083D01*
X629453Y13792D01*
X632128Y12683D01*
X635000Y12305D01*
X637872Y12683D01*
X640547Y13792D01*
X642845Y15555D01*
X644609Y17852D01*
X645717Y20528D01*
X646095Y23400D01*
Y27400D01*
X645717Y30272D01*
X644609Y32947D01*
X642845Y35245D01*
X640547Y37009D01*
X637872Y38117D01*
X635000Y38495D01*
X632128Y38117D01*
X629453Y37009D01*
X627770Y35717D01*
X626500Y36344D01*
Y52752D01*
X627708Y53145D01*
X629890Y50142D01*
D02*
G37*
G36*
X126444Y97923D02*
Y77000D01*
X135260D01*
X136053Y76392D01*
X138728Y75283D01*
X141600Y74905D01*
X144472Y75283D01*
X147148Y76392D01*
X147940Y77000D01*
X160660D01*
X161453Y76392D01*
X164128Y75283D01*
X167000Y74905D01*
X169872Y75283D01*
X172547Y76392D01*
X173340Y77000D01*
X189492D01*
X190748Y74825D01*
X193075Y72498D01*
X195925Y70852D01*
X198202Y70242D01*
X221444Y47000D01*
X223444Y45000D01*
X259443D01*
X267444Y38000D01*
Y14000D01*
X268400D01*
Y12400D01*
X290400D01*
Y14000D01*
X298981D01*
X299253Y13792D01*
X301928Y12683D01*
X304800Y12305D01*
X307672Y12683D01*
X310347Y13792D01*
X310619Y14000D01*
X324381D01*
X324653Y13792D01*
X327328Y12683D01*
X330200Y12305D01*
X333072Y12683D01*
X335747Y13792D01*
X336019Y14000D01*
X349781D01*
X350053Y13792D01*
X352728Y12683D01*
X355600Y12305D01*
X358472Y12683D01*
X361147Y13792D01*
X361419Y14000D01*
X368443D01*
Y38000D01*
X390443D01*
X392444Y36000D01*
Y4000D01*
X248570D01*
X248403Y5270D01*
X250575Y5852D01*
X253425Y7498D01*
X255753Y9825D01*
X257398Y12675D01*
X258250Y15854D01*
Y19146D01*
X257398Y22325D01*
X255753Y25175D01*
X253425Y27503D01*
X250575Y29148D01*
X247396Y30000D01*
X244104D01*
X240925Y29148D01*
X238075Y27503D01*
X235748Y25175D01*
X234102Y22325D01*
X233250Y19146D01*
Y15854D01*
X234102Y12675D01*
X235748Y9825D01*
X238075Y7498D01*
X240925Y5852D01*
X243097Y5270D01*
X242930Y4000D01*
X203570D01*
X203403Y5270D01*
X205575Y5852D01*
X208425Y7498D01*
X210753Y9825D01*
X212398Y12675D01*
X213250Y15854D01*
Y19146D01*
X212398Y22325D01*
X210753Y25175D01*
X208425Y27503D01*
X205575Y29148D01*
X202396Y30000D01*
X199104D01*
X195925Y29148D01*
X193075Y27503D01*
X190748Y25175D01*
X189102Y22325D01*
X188250Y19146D01*
Y15854D01*
X189102Y12675D01*
X190748Y9825D01*
X193075Y7498D01*
X195925Y5852D01*
X198097Y5270D01*
X197930Y4000D01*
X175115D01*
X174336Y5270D01*
X176770Y10045D01*
X178715Y16033D01*
X179700Y22252D01*
Y28548D01*
X178715Y34767D01*
X176770Y40755D01*
X173911Y46365D01*
X170210Y51458D01*
X165758Y55910D01*
X160665Y59611D01*
X155055Y62470D01*
X149067Y64415D01*
X142848Y65400D01*
X136552D01*
X130333Y64415D01*
X124345Y62470D01*
X118735Y59611D01*
X113642Y55910D01*
X109190Y51458D01*
X105489Y46365D01*
X102631Y40755D01*
X100685Y34767D01*
X99700Y28548D01*
Y22252D01*
X100685Y16033D01*
X102631Y10045D01*
X105064Y5270D01*
X104285Y4000D01*
X3240D01*
X2444Y5000D01*
Y59321D01*
X125418Y98672D01*
X126444Y97923D01*
D02*
G37*
%LPC*%
G36*
X646000Y521000D02*
X624000D01*
Y495000D01*
X646000D01*
Y521000D01*
D02*
G37*
G36*
X427560D02*
X405560D01*
Y495000D01*
X427560D01*
Y521000D01*
D02*
G37*
G36*
X609600Y521095D02*
X606728Y520717D01*
X604053Y519608D01*
X601755Y517845D01*
X599991Y515547D01*
X598883Y512872D01*
X598505Y510000D01*
Y506000D01*
X598883Y503128D01*
X599991Y500452D01*
X601755Y498155D01*
X604053Y496391D01*
X606728Y495283D01*
X609600Y494905D01*
X612472Y495283D01*
X615147Y496391D01*
X617445Y498155D01*
X619208Y500452D01*
X620317Y503128D01*
X620695Y506000D01*
Y510000D01*
X620317Y512872D01*
X619208Y515547D01*
X617445Y517845D01*
X615147Y519608D01*
X612472Y520717D01*
X609600Y521095D01*
D02*
G37*
G36*
X584200D02*
X581328Y520717D01*
X578653Y519608D01*
X576355Y517845D01*
X574591Y515547D01*
X573483Y512872D01*
X573105Y510000D01*
Y506000D01*
X573483Y503128D01*
X574591Y500452D01*
X576355Y498155D01*
X578653Y496391D01*
X581328Y495283D01*
X584200Y494905D01*
X587072Y495283D01*
X589747Y496391D01*
X592045Y498155D01*
X593809Y500452D01*
X594917Y503128D01*
X595295Y506000D01*
Y510000D01*
X594917Y512872D01*
X593809Y515547D01*
X592045Y517845D01*
X589747Y519608D01*
X587072Y520717D01*
X584200Y521095D01*
D02*
G37*
G36*
X558800D02*
X555928Y520717D01*
X553253Y519608D01*
X550955Y517845D01*
X549192Y515547D01*
X548083Y512872D01*
X547705Y510000D01*
Y506000D01*
X548083Y503128D01*
X549192Y500452D01*
X550955Y498155D01*
X553253Y496391D01*
X555928Y495283D01*
X558800Y494905D01*
X561672Y495283D01*
X564347Y496391D01*
X566645Y498155D01*
X568409Y500452D01*
X569517Y503128D01*
X569895Y506000D01*
Y510000D01*
X569517Y512872D01*
X568409Y515547D01*
X566645Y517845D01*
X564347Y519608D01*
X561672Y520717D01*
X558800Y521095D01*
D02*
G37*
G36*
X533400D02*
X530528Y520717D01*
X527853Y519608D01*
X525555Y517845D01*
X523792Y515547D01*
X522683Y512872D01*
X522305Y510000D01*
Y506000D01*
X522683Y503128D01*
X523792Y500452D01*
X525555Y498155D01*
X527853Y496391D01*
X530528Y495283D01*
X533400Y494905D01*
X536272Y495283D01*
X538947Y496391D01*
X541245Y498155D01*
X543008Y500452D01*
X544117Y503128D01*
X544495Y506000D01*
Y510000D01*
X544117Y512872D01*
X543008Y515547D01*
X541245Y517845D01*
X538947Y519608D01*
X536272Y520717D01*
X533400Y521095D01*
D02*
G37*
G36*
X508000D02*
X505128Y520717D01*
X502453Y519608D01*
X500155Y517845D01*
X498391Y515547D01*
X497283Y512872D01*
X496905Y510000D01*
Y506000D01*
X497283Y503128D01*
X498391Y500452D01*
X500155Y498155D01*
X502453Y496391D01*
X505128Y495283D01*
X508000Y494905D01*
X510872Y495283D01*
X513547Y496391D01*
X515845Y498155D01*
X517608Y500452D01*
X518717Y503128D01*
X519095Y506000D01*
Y510000D01*
X518717Y512872D01*
X517608Y515547D01*
X515845Y517845D01*
X513547Y519608D01*
X510872Y520717D01*
X508000Y521095D01*
D02*
G37*
G36*
X482600D02*
X479728Y520717D01*
X477053Y519608D01*
X474755Y517845D01*
X472991Y515547D01*
X471883Y512872D01*
X471505Y510000D01*
Y506000D01*
X471883Y503128D01*
X472991Y500452D01*
X474755Y498155D01*
X477053Y496391D01*
X479728Y495283D01*
X482600Y494905D01*
X485472Y495283D01*
X488147Y496391D01*
X490445Y498155D01*
X492209Y500452D01*
X493317Y503128D01*
X493695Y506000D01*
Y510000D01*
X493317Y512872D01*
X492209Y515547D01*
X490445Y517845D01*
X488147Y519608D01*
X485472Y520717D01*
X482600Y521095D01*
D02*
G37*
G36*
X457200D02*
X454328Y520717D01*
X451653Y519608D01*
X449355Y517845D01*
X447592Y515547D01*
X446483Y512872D01*
X446105Y510000D01*
Y506000D01*
X446483Y503128D01*
X447592Y500452D01*
X449355Y498155D01*
X451653Y496391D01*
X454328Y495283D01*
X457200Y494905D01*
X460072Y495283D01*
X462747Y496391D01*
X465045Y498155D01*
X466809Y500452D01*
X467917Y503128D01*
X468295Y506000D01*
Y510000D01*
X467917Y512872D01*
X466809Y515547D01*
X465045Y517845D01*
X462747Y519608D01*
X460072Y520717D01*
X457200Y521095D01*
D02*
G37*
G36*
X391160D02*
X388288Y520717D01*
X385613Y519608D01*
X383315Y517845D01*
X381552Y515547D01*
X380443Y512872D01*
X380065Y510000D01*
Y506000D01*
X380443Y503128D01*
X381552Y500452D01*
X383315Y498155D01*
X385613Y496391D01*
X388288Y495283D01*
X391160Y494905D01*
X394032Y495283D01*
X396707Y496391D01*
X399005Y498155D01*
X400769Y500452D01*
X401877Y503128D01*
X402255Y506000D01*
Y510000D01*
X401877Y512872D01*
X400769Y515547D01*
X399005Y517845D01*
X396707Y519608D01*
X394032Y520717D01*
X391160Y521095D01*
D02*
G37*
G36*
X365760D02*
X362888Y520717D01*
X360213Y519608D01*
X357915Y517845D01*
X356152Y515547D01*
X355043Y512872D01*
X354665Y510000D01*
Y506000D01*
X355043Y503128D01*
X356152Y500452D01*
X357915Y498155D01*
X360213Y496391D01*
X362888Y495283D01*
X365760Y494905D01*
X368632Y495283D01*
X371307Y496391D01*
X373605Y498155D01*
X375368Y500452D01*
X376477Y503128D01*
X376855Y506000D01*
Y510000D01*
X376477Y512872D01*
X375368Y515547D01*
X373605Y517845D01*
X371307Y519608D01*
X368632Y520717D01*
X365760Y521095D01*
D02*
G37*
G36*
X340360D02*
X337488Y520717D01*
X334813Y519608D01*
X332515Y517845D01*
X330751Y515547D01*
X329643Y512872D01*
X329265Y510000D01*
Y506000D01*
X329643Y503128D01*
X330751Y500452D01*
X332515Y498155D01*
X334813Y496391D01*
X337488Y495283D01*
X340360Y494905D01*
X343232Y495283D01*
X345907Y496391D01*
X348205Y498155D01*
X349968Y500452D01*
X351077Y503128D01*
X351455Y506000D01*
Y510000D01*
X351077Y512872D01*
X349968Y515547D01*
X348205Y517845D01*
X345907Y519608D01*
X343232Y520717D01*
X340360Y521095D01*
D02*
G37*
G36*
X289560D02*
X286688Y520717D01*
X284013Y519608D01*
X281715Y517845D01*
X279951Y515547D01*
X278843Y512872D01*
X278465Y510000D01*
Y506000D01*
X278843Y503128D01*
X279951Y500452D01*
X281715Y498155D01*
X284013Y496391D01*
X286688Y495283D01*
X289560Y494905D01*
X292432Y495283D01*
X295107Y496391D01*
X297405Y498155D01*
X299168Y500452D01*
X300277Y503128D01*
X300655Y506000D01*
Y510000D01*
X300277Y512872D01*
X299168Y515547D01*
X297405Y517845D01*
X295107Y519608D01*
X292432Y520717D01*
X289560Y521095D01*
D02*
G37*
G36*
X77714Y397580D02*
X74686D01*
X71761Y396796D01*
X69139Y395282D01*
X66998Y393141D01*
X65484Y390519D01*
X64700Y387594D01*
Y384566D01*
X65484Y381641D01*
X66998Y379019D01*
X69139Y376878D01*
X71761Y375364D01*
X74686Y374580D01*
X77714D01*
X80639Y375364D01*
X83261Y376878D01*
X85402Y379019D01*
X86916Y381641D01*
X87700Y384566D01*
Y387594D01*
X86916Y390519D01*
X85402Y393141D01*
X83261Y395282D01*
X80639Y396796D01*
X77714Y397580D01*
D02*
G37*
G36*
X95443Y385580D02*
X93056D01*
X90851Y384667D01*
X89163Y382979D01*
X88250Y380774D01*
Y378386D01*
X89163Y376181D01*
X90172Y375173D01*
Y323978D01*
X89592Y323399D01*
X88679Y321194D01*
Y318807D01*
X89592Y316601D01*
X91280Y314914D01*
X93485Y314000D01*
X95872D01*
X96045Y314071D01*
X97101Y313366D01*
Y277793D01*
X96601Y277587D01*
X94913Y275899D01*
X94000Y273694D01*
Y271306D01*
X94913Y269101D01*
X96601Y267414D01*
X98806Y266500D01*
X101193D01*
X103399Y267414D01*
X105086Y269101D01*
X106000Y271306D01*
Y273694D01*
X105221Y275574D01*
X105257Y275757D01*
X105257Y275758D01*
Y363500D01*
X106444D01*
X108649Y364413D01*
X110337Y366101D01*
X111250Y368307D01*
Y370694D01*
X110337Y372899D01*
X108649Y374587D01*
X106444Y375500D01*
X104057D01*
X101851Y374587D01*
X100163Y372899D01*
X99598Y371535D01*
X98328Y371787D01*
Y375173D01*
X99337Y376181D01*
X100250Y378386D01*
Y380774D01*
X99337Y382979D01*
X97649Y384667D01*
X95443Y385580D01*
D02*
G37*
G36*
X311795Y238337D02*
X309408D01*
X307203Y237423D01*
X305515Y235735D01*
X304601Y233530D01*
Y231143D01*
X305515Y228938D01*
X307203Y227250D01*
X309408Y226337D01*
X310834D01*
X322566Y214604D01*
X322513Y214283D01*
X322021Y213955D01*
X321122Y213653D01*
X318722Y214647D01*
X315850Y215025D01*
X312978Y214647D01*
X310303Y213538D01*
X308005Y211775D01*
X306977Y210436D01*
X306620Y210384D01*
X305494Y210589D01*
X304834Y211577D01*
X293250Y223161D01*
Y223944D01*
X292337Y226149D01*
X290649Y227837D01*
X288444Y228750D01*
X286056D01*
X283851Y227837D01*
X282163Y226149D01*
X281250Y223944D01*
Y221556D01*
X282163Y219351D01*
X283851Y217663D01*
X286056Y216750D01*
X288028D01*
X288716Y215924D01*
X288287Y214740D01*
X287578Y214647D01*
X284903Y213538D01*
X282605Y211775D01*
X280842Y209478D01*
X279733Y206802D01*
X279629Y206008D01*
X256680D01*
X255119Y205698D01*
X253796Y204814D01*
X253796Y204814D01*
X251232Y202250D01*
X249806D01*
X247601Y201337D01*
X245914Y199649D01*
X245000Y197444D01*
Y195056D01*
X245914Y192851D01*
X247601Y191163D01*
X249806Y190250D01*
X252194D01*
X254399Y191163D01*
X256087Y192851D01*
X257000Y195056D01*
Y196482D01*
X258369Y197852D01*
X279629D01*
X279733Y197058D01*
X280842Y194382D01*
X282605Y192085D01*
X284903Y190322D01*
X287578Y189213D01*
X287678Y189200D01*
X287595Y187930D01*
X285557D01*
X283351Y187017D01*
X281663Y185329D01*
X280750Y183123D01*
Y180737D01*
X281663Y178531D01*
X283351Y176843D01*
X285557Y175930D01*
X287943D01*
X290149Y176843D01*
X291837Y178531D01*
X292370Y179819D01*
X304834Y192283D01*
X304834Y192283D01*
X305494Y193271D01*
X306620Y193476D01*
X306977Y193424D01*
X308005Y192085D01*
X310303Y190322D01*
X312978Y189213D01*
X315850Y188835D01*
X318722Y189213D01*
X320732Y190046D01*
X321452Y188969D01*
X300982Y168500D01*
X299557D01*
X297351Y167587D01*
X295663Y165899D01*
X294750Y163694D01*
Y161306D01*
X295663Y159101D01*
X297351Y157414D01*
X299557Y156500D01*
X301943D01*
X304149Y157414D01*
X305837Y159101D01*
X306750Y161306D01*
Y162732D01*
X330234Y186216D01*
X330234Y186216D01*
X331118Y187539D01*
X331428Y189100D01*
X331428Y189100D01*
Y192574D01*
X332698Y193005D01*
X333405Y192085D01*
X335703Y190322D01*
X338378Y189213D01*
X341250Y188835D01*
X344122Y189213D01*
X346797Y190322D01*
X349095Y192085D01*
X350858Y194382D01*
X351967Y197058D01*
X352345Y199930D01*
Y203930D01*
X351967Y206802D01*
X350858Y209478D01*
X349095Y211775D01*
X346797Y213538D01*
X344122Y214647D01*
X341250Y215025D01*
X338378Y214647D01*
X335703Y213538D01*
X333405Y211775D01*
X332698Y210855D01*
X331428Y211286D01*
Y215588D01*
X331428Y215588D01*
X331118Y217148D01*
X330234Y218472D01*
X330234Y218472D01*
X316601Y232104D01*
Y233530D01*
X315688Y235735D01*
X314000Y237423D01*
X311795Y238337D01*
D02*
G37*
G36*
X209500Y218118D02*
X208909Y218000D01*
X208307D01*
X207750Y217769D01*
X207159Y217652D01*
X206658Y217317D01*
X206101Y217087D01*
X205675Y216660D01*
X205174Y216326D01*
X194216Y205368D01*
X179767D01*
X179341Y205652D01*
X178750Y205769D01*
X178193Y206000D01*
X177591D01*
X177000Y206117D01*
X176409Y206000D01*
X175807D01*
X175250Y205769D01*
X174659Y205652D01*
X174158Y205317D01*
X173601Y205087D01*
X173175Y204660D01*
X172674Y204326D01*
X172339Y203825D01*
X171913Y203399D01*
X171683Y202842D01*
X171348Y202341D01*
X171231Y201750D01*
X171000Y201194D01*
Y200591D01*
X170882Y200000D01*
X171000Y199409D01*
Y198806D01*
X171231Y198250D01*
X171348Y197659D01*
X171683Y197158D01*
X171913Y196601D01*
X172339Y196175D01*
X172674Y195674D01*
X173424Y194924D01*
X175409Y193598D01*
X177750Y193132D01*
X196750D01*
X199091Y193598D01*
X201076Y194924D01*
X213826Y207674D01*
X214160Y208175D01*
X214587Y208601D01*
X214817Y209158D01*
X215152Y209659D01*
X215269Y210250D01*
X215500Y210807D01*
Y211409D01*
X215618Y212000D01*
X215500Y212591D01*
Y213193D01*
X215269Y213750D01*
X215152Y214341D01*
X214817Y214842D01*
X214587Y215399D01*
X214160Y215825D01*
X213826Y216326D01*
X213325Y216660D01*
X212899Y217087D01*
X212342Y217317D01*
X211841Y217652D01*
X211250Y217769D01*
X210693Y218000D01*
X210091D01*
X209500Y218118D01*
D02*
G37*
G36*
X115694Y224000D02*
X113307D01*
X111101Y223086D01*
X109413Y221399D01*
X108500Y219193D01*
Y216807D01*
X109413Y214601D01*
X111101Y212913D01*
X113307Y212000D01*
X114732D01*
X123116Y203616D01*
X123116Y203616D01*
X124439Y202732D01*
X126000Y202422D01*
X126000Y202422D01*
X151366D01*
X152071Y201366D01*
X152000Y201194D01*
Y200579D01*
X150749Y199328D01*
X123157D01*
X121649Y200837D01*
X119444Y201750D01*
X117057D01*
X114851Y200837D01*
X113163Y199149D01*
X112250Y196943D01*
Y194557D01*
X113163Y192351D01*
X114851Y190663D01*
X117057Y189750D01*
X119444D01*
X121649Y190663D01*
X122157Y191172D01*
X152438D01*
X152438Y191172D01*
X153999Y191482D01*
X155322Y192366D01*
X156956Y194000D01*
X159193D01*
X161399Y194914D01*
X163086Y196601D01*
X164000Y198806D01*
Y200000D01*
X166194D01*
X168399Y200913D01*
X170087Y202601D01*
X171000Y204806D01*
Y207194D01*
X170087Y209399D01*
X168399Y211087D01*
X166194Y212000D01*
X163806D01*
X161601Y211087D01*
X161093Y210578D01*
X127689D01*
X120500Y217768D01*
Y219193D01*
X119587Y221399D01*
X117899Y223086D01*
X115694Y224000D01*
D02*
G37*
G36*
X544450Y215025D02*
X541578Y214647D01*
X538903Y213538D01*
X536605Y211775D01*
X534841Y209478D01*
X533733Y206802D01*
X533355Y203930D01*
Y199930D01*
X533733Y197058D01*
X534841Y194382D01*
X536605Y192085D01*
X538903Y190322D01*
X541578Y189213D01*
X544450Y188835D01*
X547322Y189213D01*
X549997Y190322D01*
X552295Y192085D01*
X554058Y194382D01*
X555167Y197058D01*
X555545Y199930D01*
Y203930D01*
X555167Y206802D01*
X554058Y209478D01*
X552295Y211775D01*
X549997Y213538D01*
X547322Y214647D01*
X544450Y215025D01*
D02*
G37*
G36*
X519050D02*
X516178Y214647D01*
X513503Y213538D01*
X511205Y211775D01*
X509441Y209478D01*
X508333Y206802D01*
X507955Y203930D01*
Y199930D01*
X508333Y197058D01*
X509441Y194382D01*
X511205Y192085D01*
X513503Y190322D01*
X516178Y189213D01*
X519050Y188835D01*
X521922Y189213D01*
X524597Y190322D01*
X526895Y192085D01*
X528658Y194382D01*
X529767Y197058D01*
X530145Y199930D01*
Y203930D01*
X529767Y206802D01*
X528658Y209478D01*
X526895Y211775D01*
X524597Y213538D01*
X521922Y214647D01*
X519050Y215025D01*
D02*
G37*
G36*
X493650D02*
X490778Y214647D01*
X488103Y213538D01*
X485805Y211775D01*
X484041Y209478D01*
X482933Y206802D01*
X482555Y203930D01*
Y199930D01*
X482933Y197058D01*
X484041Y194382D01*
X485805Y192085D01*
X488103Y190322D01*
X490778Y189213D01*
X493650Y188835D01*
X496522Y189213D01*
X499197Y190322D01*
X501495Y192085D01*
X503259Y194382D01*
X504367Y197058D01*
X504745Y199930D01*
Y203930D01*
X504367Y206802D01*
X503259Y209478D01*
X501495Y211775D01*
X499197Y213538D01*
X496522Y214647D01*
X493650Y215025D01*
D02*
G37*
G36*
X468250D02*
X465378Y214647D01*
X462703Y213538D01*
X460405Y211775D01*
X458642Y209478D01*
X457533Y206802D01*
X457155Y203930D01*
Y199930D01*
X457533Y197058D01*
X458642Y194382D01*
X460405Y192085D01*
X462703Y190322D01*
X465378Y189213D01*
X468250Y188835D01*
X471122Y189213D01*
X473797Y190322D01*
X476095Y192085D01*
X477859Y194382D01*
X478967Y197058D01*
X479345Y199930D01*
Y203930D01*
X478967Y206802D01*
X477859Y209478D01*
X476095Y211775D01*
X473797Y213538D01*
X471122Y214647D01*
X468250Y215025D01*
D02*
G37*
G36*
X417450D02*
X414578Y214647D01*
X411903Y213538D01*
X409605Y211775D01*
X407841Y209478D01*
X406733Y206802D01*
X406355Y203930D01*
Y199930D01*
X406733Y197058D01*
X407841Y194382D01*
X409605Y192085D01*
X411903Y190322D01*
X414578Y189213D01*
X417450Y188835D01*
X420322Y189213D01*
X422997Y190322D01*
X425295Y192085D01*
X427058Y194382D01*
X428167Y197058D01*
X428545Y199930D01*
Y203930D01*
X428167Y206802D01*
X427058Y209478D01*
X425295Y211775D01*
X422997Y213538D01*
X420322Y214647D01*
X417450Y215025D01*
D02*
G37*
G36*
X392050D02*
X389178Y214647D01*
X386503Y213538D01*
X384205Y211775D01*
X382441Y209478D01*
X381333Y206802D01*
X380955Y203930D01*
Y199930D01*
X381333Y197058D01*
X382441Y194382D01*
X384205Y192085D01*
X386503Y190322D01*
X389178Y189213D01*
X392050Y188835D01*
X394922Y189213D01*
X397597Y190322D01*
X399895Y192085D01*
X401659Y194382D01*
X402767Y197058D01*
X403145Y199930D01*
Y203930D01*
X402767Y206802D01*
X401659Y209478D01*
X399895Y211775D01*
X397597Y213538D01*
X394922Y214647D01*
X392050Y215025D01*
D02*
G37*
G36*
X366650D02*
X363778Y214647D01*
X361103Y213538D01*
X358805Y211775D01*
X357042Y209478D01*
X355933Y206802D01*
X355555Y203930D01*
Y199930D01*
X355933Y197058D01*
X357042Y194382D01*
X358805Y192085D01*
X361103Y190322D01*
X363778Y189213D01*
X366650Y188835D01*
X369522Y189213D01*
X372197Y190322D01*
X374495Y192085D01*
X376259Y194382D01*
X377367Y197058D01*
X377745Y199930D01*
Y203930D01*
X377367Y206802D01*
X376259Y209478D01*
X374495Y211775D01*
X372197Y213538D01*
X369522Y214647D01*
X366650Y215025D01*
D02*
G37*
G36*
X507000Y162059D02*
X460734D01*
X460462Y162005D01*
X460184Y162009D01*
X459882Y161889D01*
X459563Y161826D01*
X459332Y161672D01*
X459074Y161569D01*
X458841Y161343D01*
X458571Y161163D01*
X458417Y160932D01*
X458217Y160739D01*
X457483Y159677D01*
X457355Y159378D01*
X457174Y159108D01*
X457120Y158836D01*
X457010Y158581D01*
X457005Y158256D01*
X456941Y157938D01*
Y152000D01*
X457174Y150829D01*
X457837Y149837D01*
X458829Y149174D01*
X459667Y149008D01*
X474292Y134382D01*
Y133938D01*
X474371Y133546D01*
X474397Y133147D01*
X474486Y132966D01*
X474525Y132768D01*
X474748Y132435D01*
X474925Y132076D01*
X475187Y131735D01*
X475987Y129803D01*
X476286Y127529D01*
Y123931D01*
X475987Y121657D01*
X475187Y119725D01*
X474925Y119384D01*
X474748Y119025D01*
X474525Y118692D01*
X474486Y118494D01*
X474397Y118313D01*
X474371Y117914D01*
X474292Y117522D01*
Y90913D01*
X474525Y89743D01*
X475188Y88751D01*
X476181Y88088D01*
X477351Y87855D01*
X502820D01*
X502837Y87837D01*
X503829Y87174D01*
X505000Y86941D01*
X506171Y87174D01*
X507163Y87837D01*
X509163Y89837D01*
X509826Y90829D01*
X510059Y92000D01*
X510059Y92000D01*
Y115496D01*
X510269Y115567D01*
X511329Y115789D01*
X513503Y114122D01*
X516178Y113013D01*
X519050Y112635D01*
X521922Y113013D01*
X524597Y114122D01*
X526895Y115885D01*
X528658Y118182D01*
X529767Y120858D01*
X530145Y123730D01*
Y127730D01*
X529767Y130602D01*
X528658Y133278D01*
X526895Y135575D01*
X524597Y137338D01*
X521922Y138447D01*
X519050Y138825D01*
X516178Y138447D01*
X513503Y137338D01*
X511329Y135670D01*
X510269Y135893D01*
X510059Y135964D01*
Y159000D01*
X509826Y160170D01*
X509163Y161163D01*
X508171Y161826D01*
X507000Y162059D01*
D02*
G37*
G36*
X569850Y138825D02*
X566978Y138447D01*
X564303Y137338D01*
X562005Y135575D01*
X560242Y133278D01*
X559133Y130602D01*
X558755Y127730D01*
Y123730D01*
X559133Y120858D01*
X560242Y118182D01*
X562005Y115885D01*
X564303Y114122D01*
X566978Y113013D01*
X569850Y112635D01*
X572722Y113013D01*
X575397Y114122D01*
X577695Y115885D01*
X579459Y118182D01*
X580567Y120858D01*
X580945Y123730D01*
Y127730D01*
X580567Y130602D01*
X579459Y133278D01*
X577695Y135575D01*
X575397Y137338D01*
X572722Y138447D01*
X569850Y138825D01*
D02*
G37*
G36*
X544450D02*
X541578Y138447D01*
X538903Y137338D01*
X536605Y135575D01*
X534841Y133278D01*
X533733Y130602D01*
X533355Y127730D01*
Y123730D01*
X533733Y120858D01*
X534841Y118182D01*
X536605Y115885D01*
X538903Y114122D01*
X541578Y113013D01*
X544450Y112635D01*
X547322Y113013D01*
X549997Y114122D01*
X552295Y115885D01*
X554058Y118182D01*
X555167Y120858D01*
X555545Y123730D01*
Y127730D01*
X555167Y130602D01*
X554058Y133278D01*
X552295Y135575D01*
X549997Y137338D01*
X547322Y138447D01*
X544450Y138825D01*
D02*
G37*
G36*
X442850D02*
X439978Y138447D01*
X437303Y137338D01*
X435005Y135575D01*
X433242Y133278D01*
X432133Y130602D01*
X431755Y127730D01*
Y123730D01*
X432133Y120858D01*
X433242Y118182D01*
X435005Y115885D01*
X437303Y114122D01*
X439978Y113013D01*
X442850Y112635D01*
X445722Y113013D01*
X448397Y114122D01*
X450695Y115885D01*
X452458Y118182D01*
X453567Y120858D01*
X453945Y123730D01*
Y127730D01*
X453567Y130602D01*
X452458Y133278D01*
X450695Y135575D01*
X448397Y137338D01*
X445722Y138447D01*
X442850Y138825D01*
D02*
G37*
G36*
X417450D02*
X414578Y138447D01*
X411903Y137338D01*
X409605Y135575D01*
X407841Y133278D01*
X406733Y130602D01*
X406355Y127730D01*
Y123730D01*
X406733Y120858D01*
X407841Y118182D01*
X409605Y115885D01*
X411903Y114122D01*
X414578Y113013D01*
X417450Y112635D01*
X420322Y113013D01*
X422997Y114122D01*
X425295Y115885D01*
X427058Y118182D01*
X428167Y120858D01*
X428545Y123730D01*
Y127730D01*
X428167Y130602D01*
X427058Y133278D01*
X425295Y135575D01*
X422997Y137338D01*
X420322Y138447D01*
X417450Y138825D01*
D02*
G37*
G36*
X392050D02*
X389178Y138447D01*
X386503Y137338D01*
X384205Y135575D01*
X382441Y133278D01*
X381333Y130602D01*
X380955Y127730D01*
Y123730D01*
X381333Y120858D01*
X382441Y118182D01*
X384205Y115885D01*
X386503Y114122D01*
X389178Y113013D01*
X392050Y112635D01*
X394922Y113013D01*
X397597Y114122D01*
X399895Y115885D01*
X401659Y118182D01*
X402767Y120858D01*
X403145Y123730D01*
Y127730D01*
X402767Y130602D01*
X401659Y133278D01*
X399895Y135575D01*
X397597Y137338D01*
X394922Y138447D01*
X392050Y138825D01*
D02*
G37*
G36*
X366650D02*
X363778Y138447D01*
X361103Y137338D01*
X358805Y135575D01*
X357042Y133278D01*
X355933Y130602D01*
X355555Y127730D01*
Y123730D01*
X355933Y120858D01*
X357042Y118182D01*
X358805Y115885D01*
X361103Y114122D01*
X363778Y113013D01*
X366650Y112635D01*
X369522Y113013D01*
X372197Y114122D01*
X374495Y115885D01*
X376259Y118182D01*
X377367Y120858D01*
X377745Y123730D01*
Y127730D01*
X377367Y130602D01*
X376259Y133278D01*
X374495Y135575D01*
X372197Y137338D01*
X369522Y138447D01*
X366650Y138825D01*
D02*
G37*
G36*
X341250D02*
X338378Y138447D01*
X335703Y137338D01*
X333405Y135575D01*
X331642Y133278D01*
X330533Y130602D01*
X330155Y127730D01*
Y123730D01*
X330533Y120858D01*
X331642Y118182D01*
X333405Y115885D01*
X335703Y114122D01*
X338378Y113013D01*
X341250Y112635D01*
X344122Y113013D01*
X346797Y114122D01*
X349095Y115885D01*
X350858Y118182D01*
X351967Y120858D01*
X352345Y123730D01*
Y127730D01*
X351967Y130602D01*
X350858Y133278D01*
X349095Y135575D01*
X346797Y137338D01*
X344122Y138447D01*
X341250Y138825D01*
D02*
G37*
G36*
X315850D02*
X312978Y138447D01*
X310303Y137338D01*
X308005Y135575D01*
X306241Y133278D01*
X305133Y130602D01*
X304755Y127730D01*
Y123730D01*
X305133Y120858D01*
X306241Y118182D01*
X308005Y115885D01*
X310303Y114122D01*
X312978Y113013D01*
X315850Y112635D01*
X318722Y113013D01*
X321397Y114122D01*
X323695Y115885D01*
X325458Y118182D01*
X326567Y120858D01*
X326945Y123730D01*
Y127730D01*
X326567Y130602D01*
X325458Y133278D01*
X323695Y135575D01*
X321397Y137338D01*
X318722Y138447D01*
X315850Y138825D01*
D02*
G37*
G36*
X290450D02*
X287578Y138447D01*
X284903Y137338D01*
X282605Y135575D01*
X280842Y133278D01*
X279733Y130602D01*
X279355Y127730D01*
Y123730D01*
X279733Y120858D01*
X280842Y118182D01*
X282605Y115885D01*
X284903Y114122D01*
X287578Y113013D01*
X290450Y112635D01*
X293322Y113013D01*
X295997Y114122D01*
X298295Y115885D01*
X300058Y118182D01*
X301167Y120858D01*
X301545Y123730D01*
Y127730D01*
X301167Y130602D01*
X300058Y133278D01*
X298295Y135575D01*
X295997Y137338D01*
X293322Y138447D01*
X290450Y138825D01*
D02*
G37*
%LPD*%
G36*
X507000Y92000D02*
X505000Y90000D01*
X504086Y90913D01*
X477351D01*
Y117522D01*
X477859Y118182D01*
X478967Y120858D01*
X479345Y123730D01*
Y127730D01*
X478967Y130602D01*
X477859Y133278D01*
X477351Y133938D01*
Y135649D01*
X461000Y152000D01*
X460000D01*
Y157938D01*
X460734Y159000D01*
X507000D01*
Y92000D01*
D02*
G37*
%LPC*%
G36*
X493650Y138825D02*
X490778Y138447D01*
X488103Y137338D01*
X485805Y135575D01*
X484041Y133278D01*
X482933Y130602D01*
X482555Y127730D01*
Y123730D01*
X482933Y120858D01*
X484041Y118182D01*
X485805Y115885D01*
X488103Y114122D01*
X490778Y113013D01*
X493650Y112635D01*
X496522Y113013D01*
X499197Y114122D01*
X501495Y115885D01*
X503259Y118182D01*
X504367Y120858D01*
X504745Y123730D01*
Y127730D01*
X504367Y130602D01*
X503259Y133278D01*
X501495Y135575D01*
X499197Y137338D01*
X496522Y138447D01*
X493650Y138825D01*
D02*
G37*
G36*
X148000Y431695D02*
X144000D01*
X141128Y431317D01*
X138453Y430209D01*
X136155Y428445D01*
X134391Y426147D01*
X133283Y423472D01*
X132905Y420600D01*
X133283Y417728D01*
X134391Y415052D01*
X136155Y412755D01*
X138453Y410992D01*
X141128Y409883D01*
X144000Y409505D01*
X148000D01*
X150872Y409883D01*
X153547Y410992D01*
X155845Y412755D01*
X157608Y415052D01*
X158717Y417728D01*
X159095Y420600D01*
X158717Y423472D01*
X157608Y426147D01*
X155845Y428445D01*
X153547Y430209D01*
X150872Y431317D01*
X148000Y431695D01*
D02*
G37*
G36*
Y406295D02*
X144000D01*
X141128Y405917D01*
X138453Y404809D01*
X136155Y403045D01*
X134391Y400747D01*
X133283Y398072D01*
X132905Y395200D01*
X133283Y392328D01*
X134391Y389652D01*
X136155Y387355D01*
X138453Y385592D01*
X141128Y384483D01*
X144000Y384105D01*
X148000D01*
X150872Y384483D01*
X153547Y385592D01*
X155845Y387355D01*
X157608Y389652D01*
X158717Y392328D01*
X159095Y395200D01*
X158717Y398072D01*
X157608Y400747D01*
X155845Y403045D01*
X153547Y404809D01*
X150872Y405917D01*
X148000Y406295D01*
D02*
G37*
G36*
X36900Y483940D02*
X13900D01*
Y460940D01*
X36900D01*
Y483940D01*
D02*
G37*
G36*
X26914Y422980D02*
X23886D01*
X20961Y422196D01*
X18339Y420682D01*
X16198Y418541D01*
X14684Y415919D01*
X13900Y412994D01*
Y409966D01*
X14684Y407041D01*
X16198Y404419D01*
X18339Y402278D01*
X20961Y400764D01*
X23886Y399980D01*
X26914D01*
X29839Y400764D01*
X32461Y402278D01*
X34602Y404419D01*
X36116Y407041D01*
X36900Y409966D01*
Y412994D01*
X36116Y415919D01*
X34602Y418541D01*
X32461Y420682D01*
X29839Y422196D01*
X26914Y422980D01*
D02*
G37*
G36*
X36900Y397580D02*
X13900D01*
Y374580D01*
X36900D01*
Y397580D01*
D02*
G37*
G36*
X29864Y363250D02*
X26836D01*
X23911Y362466D01*
X21289Y360952D01*
X19148Y358811D01*
X17634Y356189D01*
X16850Y353264D01*
Y350236D01*
X17634Y347311D01*
X19148Y344689D01*
X21289Y342548D01*
X23911Y341034D01*
X26836Y340250D01*
X29864D01*
X32789Y341034D01*
X35411Y342548D01*
X37552Y344689D01*
X39066Y347311D01*
X39850Y350236D01*
Y353264D01*
X39066Y356189D01*
X37552Y358811D01*
X35411Y360952D01*
X32789Y362466D01*
X29864Y363250D01*
D02*
G37*
G36*
Y337850D02*
X26836D01*
X23911Y337066D01*
X21289Y335552D01*
X19148Y333411D01*
X17634Y330789D01*
X16850Y327864D01*
Y324836D01*
X17634Y321911D01*
X19148Y319289D01*
X21289Y317148D01*
X23911Y315634D01*
X26836Y314850D01*
X29864D01*
X32789Y315634D01*
X35411Y317148D01*
X37552Y319289D01*
X39066Y321911D01*
X39850Y324836D01*
Y327864D01*
X39066Y330789D01*
X37552Y333411D01*
X35411Y335552D01*
X32789Y337066D01*
X29864Y337850D01*
D02*
G37*
G36*
X28995Y243118D02*
X14995D01*
X12654Y242652D01*
X10669Y241326D01*
X9343Y239341D01*
X8878Y237000D01*
Y231000D01*
X9343Y228659D01*
X10669Y226674D01*
X12654Y225348D01*
X14995Y224883D01*
X28995D01*
X31336Y225348D01*
X33321Y226674D01*
X34647Y228659D01*
X35113Y231000D01*
Y237000D01*
X34647Y239341D01*
X33321Y241326D01*
X31336Y242652D01*
X28995Y243118D01*
D02*
G37*
G36*
X519000Y38400D02*
X497000D01*
Y12400D01*
X519000D01*
Y38400D01*
D02*
G37*
G36*
X609600Y38495D02*
X606728Y38117D01*
X604053Y37009D01*
X601755Y35245D01*
X599991Y32947D01*
X598883Y30272D01*
X598505Y27400D01*
Y23400D01*
X598883Y20528D01*
X599991Y17852D01*
X601755Y15555D01*
X604053Y13792D01*
X606728Y12683D01*
X609600Y12305D01*
X612472Y12683D01*
X615147Y13792D01*
X617445Y15555D01*
X619208Y17852D01*
X620317Y20528D01*
X620695Y23400D01*
Y27400D01*
X620317Y30272D01*
X619208Y32947D01*
X617445Y35245D01*
X615147Y37009D01*
X612472Y38117D01*
X609600Y38495D01*
D02*
G37*
G36*
X584200D02*
X581328Y38117D01*
X578653Y37009D01*
X576355Y35245D01*
X574591Y32947D01*
X573483Y30272D01*
X573105Y27400D01*
Y23400D01*
X573483Y20528D01*
X574591Y17852D01*
X576355Y15555D01*
X578653Y13792D01*
X581328Y12683D01*
X584200Y12305D01*
X587072Y12683D01*
X589747Y13792D01*
X592045Y15555D01*
X593809Y17852D01*
X594917Y20528D01*
X595295Y23400D01*
Y27400D01*
X594917Y30272D01*
X593809Y32947D01*
X592045Y35245D01*
X589747Y37009D01*
X587072Y38117D01*
X584200Y38495D01*
D02*
G37*
G36*
X558800D02*
X555928Y38117D01*
X553253Y37009D01*
X550955Y35245D01*
X549192Y32947D01*
X548083Y30272D01*
X547705Y27400D01*
Y23400D01*
X548083Y20528D01*
X549192Y17852D01*
X550955Y15555D01*
X553253Y13792D01*
X555928Y12683D01*
X558800Y12305D01*
X561672Y12683D01*
X564347Y13792D01*
X566645Y15555D01*
X568409Y17852D01*
X569517Y20528D01*
X569895Y23400D01*
Y27400D01*
X569517Y30272D01*
X568409Y32947D01*
X566645Y35245D01*
X564347Y37009D01*
X561672Y38117D01*
X558800Y38495D01*
D02*
G37*
G36*
X533400D02*
X530528Y38117D01*
X527853Y37009D01*
X525555Y35245D01*
X523792Y32947D01*
X522683Y30272D01*
X522305Y27400D01*
Y23400D01*
X522683Y20528D01*
X523792Y17852D01*
X525555Y15555D01*
X527853Y13792D01*
X530528Y12683D01*
X533400Y12305D01*
X536272Y12683D01*
X538947Y13792D01*
X541245Y15555D01*
X543008Y17852D01*
X544117Y20528D01*
X544495Y23400D01*
Y27400D01*
X544117Y30272D01*
X543008Y32947D01*
X541245Y35245D01*
X538947Y37009D01*
X536272Y38117D01*
X533400Y38495D01*
D02*
G37*
G36*
X457200D02*
X454328Y38117D01*
X451653Y37009D01*
X449355Y35245D01*
X447592Y32947D01*
X446483Y30272D01*
X446105Y27400D01*
Y23400D01*
X446483Y20528D01*
X447592Y17852D01*
X449355Y15555D01*
X451653Y13792D01*
X454328Y12683D01*
X457200Y12305D01*
X460072Y12683D01*
X462747Y13792D01*
X465045Y15555D01*
X466809Y17852D01*
X467917Y20528D01*
X468295Y23400D01*
Y27400D01*
X467917Y30272D01*
X466809Y32947D01*
X465045Y35245D01*
X462747Y37009D01*
X460072Y38117D01*
X457200Y38495D01*
D02*
G37*
G36*
X431800D02*
X428928Y38117D01*
X426253Y37009D01*
X423955Y35245D01*
X422192Y32947D01*
X421083Y30272D01*
X420705Y27400D01*
Y23400D01*
X421083Y20528D01*
X422192Y17852D01*
X423955Y15555D01*
X426253Y13792D01*
X428928Y12683D01*
X431800Y12305D01*
X434672Y12683D01*
X437347Y13792D01*
X439645Y15555D01*
X441409Y17852D01*
X442517Y20528D01*
X442895Y23400D01*
Y27400D01*
X442517Y30272D01*
X441409Y32947D01*
X439645Y35245D01*
X437347Y37009D01*
X434672Y38117D01*
X431800Y38495D01*
D02*
G37*
%LPD*%
D10*
X559762Y419000D02*
X561793Y421031D01*
X562605D01*
X306750Y419000D02*
X559762D01*
X571438Y429750D02*
X573188Y428000D01*
X574000D01*
X300250Y429750D02*
X571438D01*
X442551Y474000D02*
X588000D01*
X607000Y455000D01*
X600000Y479000D02*
X614000Y465000D01*
X441551Y473000D02*
X442551Y474000D01*
X282308Y479000D02*
X600000D01*
X266929Y473000D02*
X441551D01*
X327350Y189100D02*
Y215588D01*
X310601Y232337D02*
X327350Y215588D01*
X164500Y206500D02*
X165000Y206000D01*
X126000Y206500D02*
X164500D01*
X118750Y195250D02*
X152438D01*
X114500Y218000D02*
X126000Y206500D01*
X157188Y200000D02*
X158000D01*
X152438Y195250D02*
X157188Y200000D01*
X259429Y480500D02*
X266929Y473000D01*
X251929Y486000D02*
X257429Y480500D01*
X259429D01*
X252000Y493000D02*
Y515000D01*
Y493000D02*
X259000Y486000D01*
X275308D01*
X215757D02*
X251929D01*
X275308D02*
X280308Y481000D01*
X614000Y332000D02*
X626000Y320000D01*
X614000Y332000D02*
Y465000D01*
X626000Y231000D02*
Y320000D01*
Y231000D02*
X638000Y219000D01*
Y207530D02*
Y219000D01*
X619250Y226280D02*
Y316135D01*
X633000Y192489D02*
X635821Y189668D01*
X633000Y192489D02*
Y212530D01*
Y154250D02*
Y170308D01*
X619250Y226280D02*
X633000Y212530D01*
Y170308D02*
X636250Y173558D01*
X625000Y151000D02*
X629750D01*
X633000Y154250D01*
X607000Y328385D02*
X619250Y316135D01*
X620013Y352580D02*
X621500Y332694D01*
X620302Y361292D02*
X621500Y369731D01*
Y451250D01*
Y332694D02*
X635000Y319194D01*
X280308Y481000D02*
X282308Y479000D01*
X607000Y328385D02*
Y455000D01*
X228176Y408426D02*
X575426D01*
X576000Y409000D01*
X218000Y398250D02*
X228176Y408426D01*
X286500Y452500D02*
X300000Y439000D01*
X152500Y452500D02*
X286500D01*
X300000Y439000D02*
X572192D01*
X580500Y430692D01*
X146000Y446000D02*
X152500Y452500D01*
X599737Y130217D02*
X604217D01*
X625000Y151000D01*
X245500Y521500D02*
X252000Y515000D01*
X208597Y521500D02*
X245500D01*
X201860Y514763D02*
X208597Y521500D01*
X201860Y509757D02*
Y514763D01*
X200103Y508000D02*
X201860Y509757D01*
X187960Y508000D02*
X200103D01*
X294460Y485500D02*
X314960Y506000D01*
X285000Y485500D02*
X294460D01*
X214000Y487757D02*
X215757Y486000D01*
X214000Y487757D02*
Y507360D01*
X213360Y508000D02*
X214000Y507360D01*
X118250Y195750D02*
X118750Y195250D01*
X580500Y423562D02*
Y430692D01*
X314960Y506000D02*
Y508000D01*
X575750Y418812D02*
X580500Y423562D01*
X575750Y418000D02*
Y418812D01*
X636250Y173558D02*
Y178942D01*
X640821Y147901D02*
Y171058D01*
X635821Y179371D02*
Y189668D01*
Y179371D02*
X636250Y178942D01*
X620650Y127730D02*
X640821Y147901D01*
Y171058D02*
X641250Y171487D01*
Y181013D01*
X640821Y181442D02*
X641250Y181013D01*
X640821Y181442D02*
Y191739D01*
X638790Y193770D02*
X640821Y191739D01*
X638790Y193770D02*
Y206740D01*
X638000Y207530D02*
X638790Y206740D01*
X101179Y275757D02*
Y365429D01*
X105250Y369500D01*
X100574Y275152D02*
X101179Y275757D01*
X100000Y272500D02*
X100574Y273074D01*
Y275152D01*
X94250Y320429D02*
X94679Y320000D01*
X94250Y320429D02*
Y379580D01*
X256680Y201930D02*
X290450D01*
X251000Y196250D02*
X256680Y201930D01*
X287324Y182504D02*
X289287D01*
X287250Y222750D02*
X287893D01*
X300750Y162500D02*
X327350Y189100D01*
X286750Y181930D02*
X287324Y182504D01*
X289287D02*
X301950Y195167D01*
Y208693D01*
X287893Y222750D02*
X301950Y208693D01*
X102640Y446000D02*
X146000D01*
X76200Y472440D02*
X102640Y446000D01*
X595250Y125730D02*
X599737Y130217D01*
X620650Y125730D02*
Y127730D01*
X635000Y259250D02*
X665750Y228500D01*
X635000Y259250D02*
Y319194D01*
X665000Y163000D02*
X665750Y163750D01*
Y228500D01*
D11*
X582750Y194250D02*
Y220250D01*
X582125Y220875D02*
X582750Y220250D01*
Y194250D02*
X593000Y184000D01*
D29*
X245750Y82500D02*
D03*
D66*
X601000Y261000D02*
D03*
Y306000D02*
D03*
X666000D02*
D03*
X245750Y17500D02*
D03*
X200750D02*
D03*
Y82500D02*
D03*
D67*
X666000Y261000D02*
D03*
D71*
X620301Y361283D02*
G03*
X620013Y352580I40099J-5683D01*
G01*
X620302Y361292D02*
G03*
X620301Y361283I40098J-5692D01*
G01*
D74*
X582000Y314000D02*
X592000Y324000D01*
X582000Y221000D02*
Y314000D01*
X592000Y324000D02*
Y450500D01*
X239500Y461500D02*
X581000D01*
X225000Y476000D02*
X239500Y461500D01*
X581000D02*
X592000Y450500D01*
X582000Y221000D02*
X582125Y220875D01*
D75*
X177000Y200000D02*
X177750Y199250D01*
X196750D01*
X209500Y212000D01*
D77*
X662000Y469000D02*
D03*
X146000Y446000D02*
D03*
D78*
X662000Y418200D02*
D03*
Y443600D02*
D03*
X146000Y420600D02*
D03*
Y369800D02*
D03*
Y395200D02*
D03*
D79*
X134750Y515750D02*
D03*
D80*
X391160Y508000D02*
D03*
X187960D02*
D03*
X213360D02*
D03*
X238760D02*
D03*
X264160D02*
D03*
X289560D02*
D03*
X314960D02*
D03*
X340360D02*
D03*
X365760D02*
D03*
X304800Y25400D02*
D03*
X457200D02*
D03*
X431800D02*
D03*
X406400D02*
D03*
X381000D02*
D03*
X355600D02*
D03*
X330200D02*
D03*
X609600Y508000D02*
D03*
X457200D02*
D03*
X482600D02*
D03*
X508000D02*
D03*
X533400D02*
D03*
X558800D02*
D03*
X584200D02*
D03*
X533400Y25400D02*
D03*
X635000D02*
D03*
X609600D02*
D03*
X584200D02*
D03*
X558800D02*
D03*
X141600Y88000D02*
D03*
X167000D02*
D03*
X290450Y125730D02*
D03*
X315850D02*
D03*
X341250D02*
D03*
X366650D02*
D03*
X392050D02*
D03*
X417450D02*
D03*
X442850D02*
D03*
X468250D02*
D03*
X493650D02*
D03*
X519050D02*
D03*
X544450D02*
D03*
X569850D02*
D03*
X595250D02*
D03*
X620650D02*
D03*
X290450Y201930D02*
D03*
X315850D02*
D03*
X341250D02*
D03*
X366650D02*
D03*
X392050D02*
D03*
X417450D02*
D03*
X442850D02*
D03*
X468250D02*
D03*
X493650D02*
D03*
X519050D02*
D03*
X544450D02*
D03*
X569850D02*
D03*
X595250D02*
D03*
D81*
X416560Y508000D02*
D03*
X279400Y25400D02*
D03*
X635000Y508000D02*
D03*
X508000Y25400D02*
D03*
X116200Y88000D02*
D03*
X620650Y201930D02*
D03*
D82*
X21000Y27000D02*
D03*
X22000Y138000D02*
D03*
D83*
X139700Y25400D02*
D03*
X660400Y76200D02*
D03*
Y355600D02*
D03*
D84*
X76200Y497840D02*
D03*
X50800D02*
D03*
X25400D02*
D03*
X76200Y472440D02*
D03*
X50800D02*
D03*
X76200Y411480D02*
D03*
X50800D02*
D03*
X25400D02*
D03*
X76200Y386080D02*
D03*
X50800D02*
D03*
X28350Y351750D02*
D03*
X53750Y326350D02*
D03*
X28350D02*
D03*
D85*
X25400Y472440D02*
D03*
Y386080D02*
D03*
X53750Y351750D02*
D03*
D86*
X21995Y234000D02*
D03*
Y168000D02*
D03*
D87*
X306750Y419000D02*
D03*
X300250Y429750D02*
D03*
X293750Y418250D02*
D03*
X152000Y132000D02*
D03*
X198000Y213000D02*
D03*
X175000Y211000D02*
D03*
X107000Y159000D02*
D03*
X100000D02*
D03*
X107000Y153000D02*
D03*
X114000Y159000D02*
D03*
X133000Y174000D02*
D03*
X140000Y167000D02*
D03*
Y175000D02*
D03*
Y183000D02*
D03*
X385000Y393000D02*
D03*
X376000D02*
D03*
X385000Y401000D02*
D03*
X384000Y486000D02*
D03*
X374000D02*
D03*
X384000Y493000D02*
D03*
X375000Y401000D02*
D03*
X570000Y387000D02*
D03*
Y394000D02*
D03*
X615000Y72000D02*
D03*
Y63000D02*
D03*
X463000Y155000D02*
D03*
X469000Y91000D02*
D03*
X404000Y64000D02*
D03*
X411000D02*
D03*
X317603Y57226D02*
D03*
X310601Y232337D02*
D03*
X117000Y405000D02*
D03*
Y413000D02*
D03*
X124250Y406750D02*
D03*
X225000Y476000D02*
D03*
X58000Y451000D02*
D03*
X165000Y206000D02*
D03*
X158000Y200000D02*
D03*
X177000D02*
D03*
X209500Y212000D02*
D03*
X576000Y409000D02*
D03*
X593000Y184000D02*
D03*
X480750Y96000D02*
D03*
X374000Y493000D02*
D03*
X318000Y64000D02*
D03*
X461617Y58633D02*
D03*
X442000Y48000D02*
D03*
X291250Y69250D02*
D03*
X11250Y285000D02*
D03*
X34000Y286500D02*
D03*
X171000Y407750D02*
D03*
X224500Y440500D02*
D03*
X461735Y42500D02*
D03*
X58500Y228750D02*
D03*
X77500Y186395D02*
D03*
X118250Y195750D02*
D03*
X570000Y400000D02*
D03*
X476500Y253000D02*
D03*
X397500D02*
D03*
X444250Y219250D02*
D03*
X272750Y348250D02*
D03*
X271750Y245000D02*
D03*
X235250Y203500D02*
D03*
X221000Y252000D02*
D03*
X220000Y333500D02*
D03*
X680500Y129250D02*
D03*
X629321Y186975D02*
D03*
X629750Y176250D02*
D03*
X458000Y111250D02*
D03*
X401500D02*
D03*
X394750Y84750D02*
D03*
X231000Y136750D02*
D03*
X304000Y83000D02*
D03*
X420000Y64000D02*
D03*
X370250Y65500D02*
D03*
X202919Y428589D02*
D03*
X190750Y410000D02*
D03*
X185500Y288250D02*
D03*
X150000Y272250D02*
D03*
X107000Y255000D02*
D03*
X58500Y520750D02*
D03*
X86000Y302250D02*
D03*
X78250Y228750D02*
D03*
X75500Y254500D02*
D03*
X192500Y144500D02*
D03*
X141250Y226250D02*
D03*
X205750Y135750D02*
D03*
X166500Y130850D02*
D03*
X575750Y418000D02*
D03*
X94679Y320000D02*
D03*
X94250Y379580D02*
D03*
X100000Y272500D02*
D03*
X105250Y369500D02*
D03*
X251000Y196250D02*
D03*
X57750Y219250D02*
D03*
X86000Y108500D02*
D03*
Y117500D02*
D03*
X114500Y218000D02*
D03*
X285000Y485500D02*
D03*
X218000Y398250D02*
D03*
X562605Y421031D02*
D03*
X574000Y428000D02*
D03*
X665000Y163000D02*
D03*
X621500Y451250D02*
D03*
X300750Y162500D02*
D03*
X287250Y222750D02*
D03*
X286750Y181930D02*
D03*
M02*
