M48
;Layer_Color=9474304
;FILE_FORMAT=4:4
METRIC,LZ
;TYPE=PLATED
T01F00S00C0.3000
T03F00S00C1.0000
T04F00S00C1.1000
T05F00S00C1.5000
T06F00S00C3.2000
;TYPE=NON_PLATED
T07F00S00C3.2000
%
T01
X00317603Y00057226
X00318Y00064
X0037025Y000655
X00404Y00064
X00411
X0042
X00442Y00048
X00461735Y000425
X00461617Y00058633
X00469Y00091
X0048075Y00096
X00458Y0011125
X00463Y00155
X0044425Y0021925
X004765Y00253
X003975
X00310601Y00232337
X004015Y0011125
X0039475Y0008475
X00615Y00072
Y00063
X0062975Y0017625
X00629321Y00186975
X00593Y00184
X00665Y00163
X006805Y0012925
X0030075Y001625
X0028675Y0018193
X0028725Y0022275
X0027175Y00245
X00221Y00252
X002095Y00212
X00198Y00213
X00175Y00211
X00177Y002
X00165Y00206
X00158Y002
X0014Y00183
Y00175
X00133Y00174
X0014Y00167
X00114Y00159
X00107
Y00153
X001Y00159
X000775Y00186395
X0007825Y0022875
X000585
X0005775Y0021925
X000755Y002545
X00107Y00255
X001Y002725
X00086Y0030225
X00094679Y0032
X00034Y002865
X0001125Y00285
X0015Y0027225
X001855Y0028825
X0014125Y0022625
X001145Y00218
X0011825Y0019575
X00152Y00132
X001665Y0013085
X001925Y001445
X0020575Y0013575
X00231Y0013675
X0023525Y002035
X00251Y0019625
X00304Y00083
X0029125Y0006925
X00086Y001085
Y001175
X0009425Y0037958
X0010525Y003695
X00117Y00405
Y00413
X0012425Y0040675
X00171Y0040775
X0019075Y0041
X00202919Y00428589
X002245Y004405
X00225Y00476
X00285Y004855
X0030025Y0042975
X0030675Y00419
X0029375Y0041825
X0027275Y0034825
X0022Y003335
X00218Y0039825
X00058Y00451
X000585Y0052075
X00374Y00493
Y00486
X00384
Y00493
X00385Y00401
Y00393
X00376
X00375Y00401
X0057Y004
Y00394
Y00387
X00576Y00409
X0057575Y00418
X00574Y00428
X00562605Y00421031
X006215Y0045125
T03
X00601Y00261
Y00306
X00666
Y00261
X0024575Y000825
X0020075
Y000175
X0024575
T04
X003302Y000254
X003556
X00381
X004064
X004318
X004572
X00508
X005334
X005588
X005842
X006096
X00635
X0062065Y0012573
X0059525
X0056985
X0054445
X0051905
X0049365
X0046825
X0044285
X0041745
X0039205
X0036665
X0034125
X0031585
Y0020193
X0034125
X0036665
X0039205
X0041745
X0044285
X0046825
X0049365
X0051905
X0054445
X0056985
X0059525
X0062065
X0029045
Y0012573
X002794Y000254
X003048
X00167Y00088
X001416
X001162
X0005375Y0032635
X0002835
Y0035175
X0005375
X000508Y0038608
Y0041148
X000762
Y0038608
X000254
Y0041148
Y0047244
Y0049784
X000508
X000762
Y0047244
X000508
X00146Y00446
Y004206
Y003952
Y003698
X0018796Y00508
X0021336
X0023876
X0026416
X0028956
X0031496
X0034036
X0036576
X0039116
X0041656
X004572
X004826
X00508
X005334
X005588
X005842
X006096
X00635
X00662Y00469
Y004436
Y004182
T05
X00021Y00027
X00022Y00138
T06
X006604Y000762
X001397Y000254
X006604Y003556
T07
X0013475Y0051575
M30
